<mxfile host="app.diagrams.net" agent="Mozilla/5.0 (Windows NT 10.0; Win64; x64) AppleWebKit/537.36 (KHTML, like Gecko) Chrome/131.0.0.0 Safari/537.36 Edg/131.0.0.0" version="26.0.5">
  <diagram name="PÃ¡gina-1" id="mzD2ORlM8CCtvl3wPrJP">
    <mxGraphModel dx="1000" dy="635" grid="1" gridSize="10" guides="1" tooltips="1" connect="1" arrows="1" fold="1" page="1" pageScale="1" pageWidth="827" pageHeight="1169" math="0" shadow="0">
      <root>
        <mxCell id="0" />
        <mxCell id="1" parent="0" />
        <mxCell id="9cUfWUzaJqITgVBhfXAm-6" value="" style="shape=image;verticalLabelPosition=bottom;labelBackgroundColor=default;verticalAlign=top;aspect=fixed;imageAspect=0;editableCssRules=.*;image=data:image/svg+xml,PHN2ZyB4bWxucz0iaHR0cDovL3d3dy53My5vcmcvMjAwMC9zdmciIHZpZXdCb3g9IjAgMCAzMzAgMjAwIj48Zz48Zz48Zz48Zz48Zz48bGluZSBzdHJva2Utd2lkdGg9IjFweCIgc3Ryb2tlPSJyZ2IoMjA0LCAyMDQsIDIwNCkiIGZpbGw9InJnYigwLCAwLCAwKSIgc3R5bGU9InZpc2liaWxpdHk6IGluaGVyaXQ7IiB5Mj0iMTc3IiB4Mj0iNTYuOTUzMTI1IiB5MT0iMTc3IiB4MT0iNjEuOTUzMTI1Ii8+PGxpbmUgc3Ryb2tlLXdpZHRoPSIxcHgiIHN0cm9rZT0icmdiKDIwNCwgMjA0LCAyMDQpIiBmaWxsPSJyZ2IoMCwgMCwgMCkiIHN0eWxlPSJ2aXNpYmlsaXR5OiBpbmhlcml0OyIgeTI9IjE1Ny4zMzMzMzMzMzMzMzMzMSIgeDI9IjU2Ljk1MzEyNSIgeTE9IjE1Ny4zMzMzMzMzMzMzMzMzMSIgeDE9IjYxLjk1MzEyNSIvPjxsaW5lIHN0cm9rZS13aWR0aD0iMXB4IiBzdHJva2U9InJnYigyMDQsIDIwNCwgMjA0KSIgZmlsbD0icmdiKDAsIDAsIDApIiBzdHlsZT0idmlzaWJpbGl0eTogaW5oZXJpdDsiIHkyPSIxMzcuNjY2NjY2NjY2NjY2NjYiIHgyPSI1Ni45NTMxMjUiIHkxPSIxMzcuNjY2NjY2NjY2NjY2NjYiIHgxPSI2MS45NTMxMjUiLz48bGluZSBzdHJva2Utd2lkdGg9IjFweCIgc3Ryb2tlPSJyZ2IoMjA0LCAyMDQsIDIwNCkiIGZpbGw9InJnYigwLCAwLCAwKSIgc3R5bGU9InZpc2liaWxpdHk6IGluaGVyaXQ7IiB5Mj0iMTE3Ljk5OTk5OTk5OTk5OTk3IiB4Mj0iNTYuOTUzMTI1IiB5MT0iMTE3Ljk5OTk5OTk5OTk5OTk3IiB4MT0iNjEuOTUzMTI1Ii8+PGxpbmUgc3Ryb2tlLXdpZHRoPSIxcHgiIHN0cm9rZT0icmdiKDIwNCwgMjA0LCAyMDQpIiBmaWxsPSJyZ2IoMCwgMCwgMCkiIHN0eWxlPSJ2aXNpYmlsaXR5OiBpbmhlcml0OyIgeTI9Ijk4LjMzMzMzMzMzMzMzMzM0IiB4Mj0iNTYuOTUzMTI1IiB5MT0iOTguMzMzMzMzMzMzMzMzMzQiIHgxPSI2MS45NTMxMjUiLz48bGluZSBzdHJva2Utd2lkdGg9IjFweCIgc3Ryb2tlPSJyZ2IoMjA0LCAyMDQsIDIwNCkiIGZpbGw9InJnYigwLCAwLCAwKSIgc3R5bGU9InZpc2liaWxpdHk6IGluaGVyaXQ7IiB5Mj0iNzguNjY2NjY2NjY2NjY2NjQiIHgyPSI1Ni45NTMxMjUiIHkxPSI3OC42NjY2NjY2NjY2NjY2NCIgeDE9IjYxLjk1MzEyNSIvPjxsaW5lIHN0cm9rZS13aWR0aD0iMXB4IiBzdHJva2U9InJnYigyMDQsIDIwNCwgMjA0KSIgZmlsbD0icmdiKDAsIDAsIDApIiBzdHlsZT0idmlzaWJpbGl0eTogaW5oZXJpdDsiIHkyPSI1OC45OTk5OTk5OTk5OTk5ODYiIHgyPSI1Ni45NTMxMjUiIHkxPSI1OC45OTk5OTk5OTk5OTk5ODYiIHgxPSI2MS45NTMxMjUiLz48bGluZSBzdHJva2Utd2lkdGg9IjFweCIgc3Ryb2tlPSJyZ2IoMjA0LCAyMDQsIDIwNCkiIGZpbGw9InJnYigwLCAwLCAwKSIgc3R5bGU9InZpc2liaWxpdHk6IGluaGVyaXQ7IiB5Mj0iMzkuMzMzMzMzMzMzMzMzMzE0IiB4Mj0iNTYuOTUzMTI1IiB5MT0iMzkuMzMzMzMzMzMzMzMzMzE0IiB4MT0iNjEuOTUzMTI1Ii8+PGxpbmUgc3Ryb2tlLXdpZHRoPSIxcHgiIHN0cm9rZT0icmdiKDIwNCwgMjA0LCAyMDQpIiBmaWxsPSJyZ2IoMCwgMCwgMCkiIHN0eWxlPSJ2aXNpYmlsaXR5OiBpbmhlcml0OyIgeTI9IjE5LjY2NjY2NjY2NjY2NjYxOCIgeDI9IjU2Ljk1MzEyNSIgeTE9IjE5LjY2NjY2NjY2NjY2NjYxOCIgeDE9IjYxLjk1MzEyNSIvPjxsaW5lIHN0cm9rZS13aWR0aD0iMXB4IiBzdHJva2U9InJnYigyMDQsIDIwNCwgMjA0KSIgZmlsbD0icmdiKDAsIDAsIDApIiBzdHlsZT0idmlzaWJpbGl0eTogaW5oZXJpdDsiIHkyPSIwIiB4Mj0iNTYuOTUzMTI1IiB5MT0iMCIgeDE9IjYxLjk1MzEyNSIvPjwvZz48ZyB0cmFuc2Zvcm09InRyYW5zbGF0ZSg1MS45NTMxMjUsIDApIj48dGV4dCBzdHJva2Utd2lkdGg9IjFweCIgc3Ryb2tlPSJub25lIiBmaWxsPSJyZ2IoMzMsIDMzLCAzMykiIHN0eWxlPSJ0ZXh0LWFuY2hvcjogZW5kOyB2aXNpYmlsaXR5OiBoaWRkZW47IGZvbnQtZmFtaWx5OiBSb2JvdG8sIHNhbnMtc2VyaWY7IGZvbnQtc2l6ZTogMTJweDsgZm9udC13ZWlnaHQ6IDIwMDsiIGR5PSIwLjNlbSIgZHg9IjBlbSIgeT0iMTc3IiB4PSIwIj4wLjAxODwvdGV4dD48dGV4dCBzdHJva2Utd2lkdGg9IjFweCIgc3Ryb2tlPSJub25lIiBmaWxsPSJyZ2IoMzMsIDMzLCAzMykiIHN0eWxlPSJ0ZXh0LWFuY2hvcjogZW5kOyB2aXNpYmlsaXR5OiBpbmhlcml0OyBmb250LWZhbWlseTogUm9ib3RvLCBzYW5zLXNlcmlmOyBmb250LXNpemU6IDEycHg7IGZvbnQtd2VpZ2h0OiAyMDA7IiBkeT0iMC4zZW0iIGR4PSIwZW0iIHk9IjE1Ny4zMzMzMzMzMzMzMzMzMSIgeD0iMCI+MC4wMjwvdGV4dD48dGV4dCBzdHJva2Utd2lkdGg9IjFweCIgc3Ryb2tlPSJub25lIiBmaWxsPSJyZ2IoMzMsIDMzLCAzMykiIHN0eWxlPSJ0ZXh0LWFuY2hvcjogZW5kOyB2aXNpYmlsaXR5OiBoaWRkZW47IGZvbnQtZmFtaWx5OiBSb2JvdG8sIHNhbnMtc2VyaWY7IGZvbnQtc2l6ZTogMTJweDsgZm9udC13ZWlnaHQ6IDIwMDsiIGR5PSIwLjNlbSIgZHg9IjBlbSIgeT0iMTM3LjY2NjY2NjY2NjY2NjY2IiB4PSIwIj4wLjAyMjwvdGV4dD48dGV4dCBzdHJva2Utd2lkdGg9IjFweCIgc3Ryb2tlPSJub25lIiBmaWxsPSJyZ2IoMzMsIDMzLCAzMykiIHN0eWxlPSJ0ZXh0LWFuY2hvcjogZW5kOyB2aXNpYmlsaXR5OiBpbmhlcml0OyBmb250LWZhbWlseTogUm9ib3RvLCBzYW5zLXNlcmlmOyBmb250LXNpemU6IDEycHg7IGZvbnQtd2VpZ2h0OiAyMDA7IiBkeT0iMC4zZW0iIGR4PSIwZW0iIHk9IjExNy45OTk5OTk5OTk5OTk5NyIgeD0iMCI+MC4wMjQ8L3RleHQ+PHRleHQgc3Ryb2tlLXdpZHRoPSIxcHgiIHN0cm9rZT0ibm9uZSIgZmlsbD0icmdiKDMzLCAzMywgMzMpIiBzdHlsZT0idGV4dC1hbmNob3I6IGVuZDsgdmlzaWJpbGl0eTogaGlkZGVuOyBmb250LWZhbWlseTogUm9ib3RvLCBzYW5zLXNlcmlmOyBmb250LXNpemU6IDEycHg7IGZvbnQtd2VpZ2h0OiAyMDA7IiBkeT0iMC4zZW0iIGR4PSIwZW0iIHk9Ijk4LjMzMzMzMzMzMzMzMzM0IiB4PSIwIj4wLjAyNjwvdGV4dD48dGV4dCBzdHJva2Utd2lkdGg9IjFweCIgc3Ryb2tlPSJub25lIiBmaWxsPSJyZ2IoMzMsIDMzLCAzMykiIHN0eWxlPSJ0ZXh0LWFuY2hvcjogZW5kOyB2aXNpYmlsaXR5OiBpbmhlcml0OyBmb250LWZhbWlseTogUm9ib3RvLCBzYW5zLXNlcmlmOyBmb250LXNpemU6IDEycHg7IGZvbnQtd2VpZ2h0OiAyMDA7IiBkeT0iMC4zZW0iIGR4PSIwZW0iIHk9Ijc4LjY2NjY2NjY2NjY2NjY0IiB4PSIwIj4wLjAyODwvdGV4dD48dGV4dCBzdHJva2Utd2lkdGg9IjFweCIgc3Ryb2tlPSJub25lIiBmaWxsPSJyZ2IoMzMsIDMzLCAzMykiIHN0eWxlPSJ0ZXh0LWFuY2hvcjogZW5kOyB2aXNpYmlsaXR5OiBoaWRkZW47IGZvbnQtZmFtaWx5OiBSb2JvdG8sIHNhbnMtc2VyaWY7IGZvbnQtc2l6ZTogMTJweDsgZm9udC13ZWlnaHQ6IDIwMDsiIGR5PSIwLjNlbSIgZHg9IjBlbSIgeT0iNTguOTk5OTk5OTk5OTk5OTg2IiB4PSIwIj4wLjAzPC90ZXh0Pjx0ZXh0IHN0cm9rZS13aWR0aD0iMXB4IiBzdHJva2U9Im5vbmUiIGZpbGw9InJnYigzMywgMzMsIDMzKSIgc3R5bGU9InRleHQtYW5jaG9yOiBlbmQ7IHZpc2liaWxpdHk6IGluaGVyaXQ7IGZvbnQtZmFtaWx5OiBSb2JvdG8sIHNhbnMtc2VyaWY7IGZvbnQtc2l6ZTogMTJweDsgZm9udC13ZWlnaHQ6IDIwMDsiIGR5PSIwLjNlbSIgZHg9IjBlbSIgeT0iMzkuMzMzMzMzMzMzMzMzMzE0IiB4PSIwIj4wLjAzMjwvdGV4dD48dGV4dCBzdHJva2Utd2lkdGg9IjFweCIgc3Ryb2tlPSJub25lIiBmaWxsPSJyZ2IoMzMsIDMzLCAzMykiIHN0eWxlPSJ0ZXh0LWFuY2hvcjogZW5kOyB2aXNpYmlsaXR5OiBoaWRkZW47IGZvbnQtZmFtaWx5OiBSb2JvdG8sIHNhbnMtc2VyaWY7IGZvbnQtc2l6ZTogMTJweDsgZm9udC13ZWlnaHQ6IDIwMDsiIGR5PSIwLjNlbSIgZHg9IjBlbSIgeT0iMTkuNjY2NjY2NjY2NjY2NjE4IiB4PSIwIj4wLjAzNDwvdGV4dD48dGV4dCBzdHJva2Utd2lkdGg9IjFweCIgc3Ryb2tlPSJub25lIiBmaWxsPSJyZ2IoMzMsIDMzLCAzMykiIHN0eWxlPSJ0ZXh0LWFuY2hvcjogZW5kOyB2aXNpYmlsaXR5OiBoaWRkZW47IGZvbnQtZmFtaWx5OiBSb2JvdG8sIHNhbnMtc2VyaWY7IGZvbnQtc2l6ZTogMTJweDsgZm9udC13ZWlnaHQ6IDIwMDsiIGR5PSIwLjNlbSIgZHg9IjBlbSIgeT0iMCIgeD0iMCI+MC4wMzY8L3RleHQ+PC9nPjxsaW5lIHN0cm9rZS13aWR0aD0iMXB4IiBzdHJva2U9InJnYigyMDQsIDIwNCwgMjA0KSIgZmlsbD0icmdiKDAsIDAsIDApIiB5Mj0iMTc3IiB4Mj0iNjEuOTUzMTI1IiB5MT0iMCIgeDE9IjYxLjk1MzEyNSIvPjwvZz48L2c+PGcgY2xpcC1wYXRoPSJ1cmwoI2NsaXBfMCkiIHRyYW5zZm9ybT0idHJhbnNsYXRlKDYxLCAwKSI+PGNsaXBQYXRoIGlkPSJjbGlwXzAiPjxyZWN0IGhlaWdodD0iMTc2IiB3aWR0aD0iMjY4Ii8+PC9jbGlwUGF0aD48Zz48Zz48Zz48bGluZSBvcGFjaXR5PSIwLjI1IiBzdHJva2Utd2lkdGg9IjFweCIgc3Ryb2tlPSJyZ2IoNjYsIDY2LCA2NikiIGZpbGw9InJnYigwLCAwLCAwKSIgeTI9IjE3NyIgeDI9IjAiIHkxPSIwIiB4MT0iMCIvPjxsaW5lIG9wYWNpdHk9IjAuMjUiIHN0cm9rZS13aWR0aD0iMXB4IiBzdHJva2U9InJnYig2NiwgNjYsIDY2KSIgZmlsbD0icmdiKDAsIDAsIDApIiB5Mj0iMTc3IiB4Mj0iMjIuMzM3MjM5NTgzMzMzMzMyIiB5MT0iMCIgeDE9IjIyLjMzNzIzOTU4MzMzMzMzMiIvPjxsaW5lIG9wYWNpdHk9IjAuMjUiIHN0cm9rZS13aWR0aD0iMXB4IiBzdHJva2U9InJnYig2NiwgNjYsIDY2KSIgZmlsbD0icmdiKDAsIDAsIDApIiB5Mj0iMTc3IiB4Mj0iNDQuNjc0NDc5MTY2NjY2NjY0IiB5MT0iMCIgeDE9IjQ0LjY3NDQ3OTE2NjY2NjY2NCIvPjxsaW5lIG9wYWNpdHk9IjAuMjUiIHN0cm9rZS13aWR0aD0iMXB4IiBzdHJva2U9InJnYig2NiwgNjYsIDY2KSIgZmlsbD0icmdiKDAsIDAsIDApIiB5Mj0iMTc3IiB4Mj0iNjcuMDExNzE4NzUiIHkxPSIwIiB4MT0iNjcuMDExNzE4NzUiLz48bGluZSBvcGFjaXR5PSIwLjI1IiBzdHJva2Utd2lkdGg9IjFweCIgc3Ryb2tlPSJyZ2IoNjYsIDY2LCA2NikiIGZpbGw9InJnYigwLCAwLCAwKSIgeTI9IjE3NyIgeDI9Ijg5LjM0ODk1ODMzMzMzMzMzIiB5MT0iMCIgeDE9Ijg5LjM0ODk1ODMzMzMzMzMzIi8+PGxpbmUgb3BhY2l0eT0iMC4yNSIgc3Ryb2tlLXdpZHRoPSIxcHgiIHN0cm9rZT0icmdiKDY2LCA2NiwgNjYpIiBmaWxsPSJyZ2IoMCwgMCwgMCkiIHkyPSIxNzciIHgyPSIxMTEuNjg2MTk3OTE2NjY2NjciIHkxPSIwIiB4MT0iMTExLjY4NjE5NzkxNjY2NjY3Ii8+PGxpbmUgb3BhY2l0eT0iMC4yNSIgc3Ryb2tlLXdpZHRoPSIxcHgiIHN0cm9rZT0icmdiKDY2LCA2NiwgNjYpIiBmaWxsPSJyZ2IoMCwgMCwgMCkiIHkyPSIxNzciIHgyPSIxMzQuMDIzNDM3NSIgeTE9IjAiIHgxPSIxMzQuMDIzNDM3NSIvPjxsaW5lIG9wYWNpdHk9IjAuMjUiIHN0cm9rZS13aWR0aD0iMXB4IiBzdHJva2U9InJnYig2NiwgNjYsIDY2KSIgZmlsbD0icmdiKDAsIDAsIDApIiB5Mj0iMTc3IiB4Mj0iMTU2LjM2MDY3NzA4MzMzMzM0IiB5MT0iMCIgeDE9IjE1Ni4zNjA2NzcwODMzMzMzNCIvPjxsaW5lIG9wYWNpdHk9IjAuMjUiIHN0cm9rZS13aWR0aD0iMXB4IiBzdHJva2U9InJnYig2NiwgNjYsIDY2KSIgZmlsbD0icmdiKDAsIDAsIDApIiB5Mj0iMTc3IiB4Mj0iMTc4LjY5NzkxNjY2NjY2NjY2IiB5MT0iMCIgeDE9IjE3OC42OTc5MTY2NjY2NjY2NiIvPjxsaW5lIG9wYWNpdHk9IjAuMjUiIHN0cm9rZS13aWR0aD0iMXB4IiBzdHJva2U9InJnYig2NiwgNjYsIDY2KSIgZmlsbD0icmdiKDAsIDAsIDApIiB5Mj0iMTc3IiB4Mj0iMjAxLjAzNTE1NjI1IiB5MT0iMCIgeDE9IjIwMS4wMzUxNTYyNSIvPjxsaW5lIG9wYWNpdHk9IjAuMjUiIHN0cm9rZS13aWR0aD0iMXB4IiBzdHJva2U9InJnYig2NiwgNjYsIDY2KSIgZmlsbD0icmdiKDAsIDAsIDApIiB5Mj0iMTc3IiB4Mj0iMjIzLjM3MjM5NTgzMzMzMzM0IiB5MT0iMCIgeDE9IjIyMy4zNzIzOTU4MzMzMzMzNCIvPjxsaW5lIG9wYWNpdHk9IjAuMjUiIHN0cm9rZS13aWR0aD0iMXB4IiBzdHJva2U9InJnYig2NiwgNjYsIDY2KSIgZmlsbD0icmdiKDAsIDAsIDApIiB5Mj0iMTc3IiB4Mj0iMjQ1LjcwOTYzNTQxNjY2NjY2IiB5MT0iMCIgeDE9IjI0NS43MDk2MzU0MTY2NjY2NiIvPjxsaW5lIG9wYWNpdHk9IjAuMjUiIHN0cm9rZS13aWR0aD0iMXB4IiBzdHJva2U9InJnYig2NiwgNjYsIDY2KSIgZmlsbD0icmdiKDAsIDAsIDApIiB5Mj0iMTc3IiB4Mj0iMjY4LjA0Njg3NSIgeTE9IjAiIHgxPSIyNjguMDQ2ODc1Ii8+PC9nPjxnPjxsaW5lIG9wYWNpdHk9IjAuMjUiIHN0cm9rZS13aWR0aD0iMXB4IiBzdHJva2U9InJnYig2NiwgNjYsIDY2KSIgZmlsbD0icmdiKDAsIDAsIDApIiB5Mj0iMTc3IiB4Mj0iMjY4LjA0Njg3NSIgeTE9IjE3NyIgeDE9IjAiLz48bGluZSBvcGFjaXR5PSIwLjI1IiBzdHJva2Utd2lkdGg9IjFweCIgc3Ryb2tlPSJyZ2IoNjYsIDY2LCA2NikiIGZpbGw9InJnYigwLCAwLCAwKSIgeTI9IjE1Ny4zMzMzMzMzMzMzMzMzMSIgeDI9IjI2OC4wNDY4NzUiIHkxPSIxNTcuMzMzMzMzMzMzMzMzMzEiIHgxPSIwIi8+PGxpbmUgb3BhY2l0eT0iMC4yNSIgc3Ryb2tlLXdpZHRoPSIxcHgiIHN0cm9rZT0icmdiKDY2LCA2NiwgNjYpIiBmaWxsPSJyZ2IoMCwgMCwgMCkiIHkyPSIxMzcuNjY2NjY2NjY2NjY2NjYiIHgyPSIyNjguMDQ2ODc1IiB5MT0iMTM3LjY2NjY2NjY2NjY2NjY2IiB4MT0iMCIvPjxsaW5lIG9wYWNpdHk9IjAuMjUiIHN0cm9rZS13aWR0aD0iMXB4IiBzdHJva2U9InJnYig2NiwgNjYsIDY2KSIgZmlsbD0icmdiKDAsIDAsIDApIiB5Mj0iMTE3Ljk5OTk5OTk5OTk5OTk3IiB4Mj0iMjY4LjA0Njg3NSIgeTE9IjExNy45OTk5OTk5OTk5OTk5NyIgeDE9IjAiLz48bGluZSBvcGFjaXR5PSIwLjI1IiBzdHJva2Utd2lkdGg9IjFweCIgc3Ryb2tlPSJyZ2IoNjYsIDY2LCA2NikiIGZpbGw9InJnYigwLCAwLCAwKSIgeTI9Ijk4LjMzMzMzMzMzMzMzMzM0IiB4Mj0iMjY4LjA0Njg3NSIgeTE9Ijk4LjMzMzMzMzMzMzMzMzM0IiB4MT0iMCIvPjxsaW5lIG9wYWNpdHk9IjAuMjUiIHN0cm9rZS13aWR0aD0iMXB4IiBzdHJva2U9InJnYig2NiwgNjYsIDY2KSIgZmlsbD0icmdiKDAsIDAsIDApIiB5Mj0iNzguNjY2NjY2NjY2NjY2NjQiIHgyPSIyNjguMDQ2ODc1IiB5MT0iNzguNjY2NjY2NjY2NjY2NjQiIHgxPSIwIi8+PGxpbmUgb3BhY2l0eT0iMC4yNSIgc3Ryb2tlLXdpZHRoPSIxcHgiIHN0cm9rZT0icmdiKDY2LCA2NiwgNjYpIiBmaWxsPSJyZ2IoMCwgMCwgMCkiIHkyPSI1OC45OTk5OTk5OTk5OTk5ODYiIHgyPSIyNjguMDQ2ODc1IiB5MT0iNTguOTk5OTk5OTk5OTk5OTg2IiB4MT0iMCIvPjxsaW5lIG9wYWNpdHk9IjAuMjUiIHN0cm9rZS13aWR0aD0iMXB4IiBzdHJva2U9InJnYig2NiwgNjYsIDY2KSIgZmlsbD0icmdiKDAsIDAsIDApIiB5Mj0iMzkuMzMzMzMzMzMzMzMzMzE0IiB4Mj0iMjY4LjA0Njg3NSIgeTE9IjM5LjMzMzMzMzMzMzMzMzMxNCIgeDE9IjAiLz48bGluZSBvcGFjaXR5PSIwLjI1IiBzdHJva2Utd2lkdGg9IjFweCIgc3Ryb2tlPSJyZ2IoNjYsIDY2LCA2NikiIGZpbGw9InJnYigwLCAwLCAwKSIgeTI9IjE5LjY2NjY2NjY2NjY2NjYxOCIgeDI9IjI2OC4wNDY4NzUiIHkxPSIxOS42NjY2NjY2NjY2NjY2MTgiIHgxPSIwIi8+PGxpbmUgb3BhY2l0eT0iMC4yNSIgc3Ryb2tlLXdpZHRoPSIxcHgiIHN0cm9rZT0icmdiKDY2LCA2NiwgNjYpIiBmaWxsPSJyZ2IoMCwgMCwgMCkiIHkyPSIwIiB4Mj0iMjY4LjA0Njg3NSIgeTE9IjAiIHgxPSIwIi8+PC9nPjwvZz48L2c+PGc+PGc+PGxpbmUgc3Ryb2tlLXdpZHRoPSIxLjVweCIgc3Ryb2tlPSJyZ2IoMTUzLCAxNTMsIDE1MykiIGZpbGw9InJnYigwLCAwLCAwKSIgeTI9IjM1NCIgeDI9IjI2OC4wNDY4NzUiIHkxPSIzNTQiIHgxPSIwIi8+PC9nPjwvZz48Zz48Zz48bGluZSBzdHJva2Utd2lkdGg9IjEuNXB4IiBzdHJva2U9InJnYigxNTMsIDE1MywgMTUzKSIgZmlsbD0icmdiKDAsIDAsIDApIiB5Mj0iMTc3IiB4Mj0iMjIuMzM3MjM5NTgzMzMzMzMyIiB5MT0iMCIgeDE9IjIyLjMzNzIzOTU4MzMzMzMzMiIvPjwvZz48L2c+PGc+PGc+PGc+PGc+PGc+PHBhdGggZmlsbD0ibm9uZSIgc3R5bGU9ImZpbGw6IG5vbmU7IiBkPSJNMjYuNzYwMDEzMDIwODMzMzM0LDMyLjYyMzI4NDUyMzY4NTc1NEwzMS4yMjc0NjA5Mzc1MDAwMDIsNjcuMTU0NzM0MTEyMzIyMjZMMzUuNjk0OTA4ODU0MTY2NjYsNzcuMjMyMDgxNjc5NDYyNTJMNDAuMTYyMzU2NzcwODMzMzM0LDkwLjQzODY3OTgxMDE3NTA3TDQ0LjYyOTgwNDY4NzUwMDAwNSw5OC4wMTkyMTI2ODMxNjQyM0w0OS4wOTcyNTI2MDQxNjY2NywxMDcuNDA4ODAyMzA2OTI3MDdMNTMuNTY0NzAwNTIwODMzMzM0LDEwMy43ODg2MzIzNjI3OTIzN0w1OC4wMzIxNDg0Mzc1LDExMy4yNjc2ODYxNTQyNjcxMkw2Mi40OTk1OTYzNTQxNjY2NiwxMTguOTcyMDE1MDI4NTcxNzVMNjYuOTY3MDQ0MjcwODMzMzMsMTE5LjE3MDAzNDM0MTI1NzU4TDcxLjQzNDQ5MjE4NzUsMTE1LjcyNzU2Nzk0NzM3ODczTDc1LjkwMTk0MDEwNDE2NjY3LDExNi4zNzIzNTQwMjYyMTgxMkw4MC4zNjkzODgwMjA4MzMzNCwxMjIuNTg0ODc0MDY0MTI0MUw4NC44MzY4MzU5Mzc1LDEyNy43ODY4OTc1OTU2Mjc2TDg5LjMwNDI4Mzg1NDE2NjY3LDEyOC43MjM0MzQyOTcwNzU1M0w5My43NzE3MzE3NzA4MzMzMywxMzQuMzUxODk5MTM0NzYyNjVMOTguMjM5MTc5Njg3NSwxMzQuNjQwNjEyNDc3MzI0OEwxMDIuNzA2NjI3NjA0MTY2NjcsMTM1LjMwNTIyNjM5MTk4MTQ1TDEwNy4xNzQwNzU1MjA4MzMzMywxMzIuODk3ODQ4MzA3OTg4NzRMMTExLjY0MTUyMzQzNzUsMTM2LjIzOTQ4ODA3NDE1NTE2TDExNi4xMDg5NzEzNTQxNjY2NiwxNDIuMDM5NTU0Mzk3MzY1NzhMMTIwLjU3NjQxOTI3MDgzMzMzLDEzOS41OTU4MzE4MTI0NDE5M0wxMjUuMDQzODY3MTg3NTAwMDEsMTM5LjM3MzI1NjQ4NDg3NDhMMTI5LjUxMTMxNTEwNDE2NjY3LDE0Mi43NDQzMjE4MjA2MDU5NkwxMzMuOTc4NzYzMDIwODMzMzMsMTQ3LjA3NzYzOTMzMjM1ODRMMTM4LjQ0NjIxMDkzNzQ5OTk4LDE1My40MTE3MzUzOTE2NjE1NUwxNDIuOTEzNjU4ODU0MTY2NjcsMTU2LjU1ODE1MDAwODYzMTFMMTQ3LjM4MTEwNjc3MDgzMzMzLDE1Ny42ODM2NjE5MDc4NTM5NUwxNTEuODQ4NTU0Njg3NSwxNTkuNDg1MTc2NTU1NDYyNzFMMTU2LjMxNjAwMjYwNDE2NjY3LDE2MC4zMzE1ODg2NDY0MjE0NEwxNjAuNzgzNDUwNTIwODMzMzMsMTU4LjQ5NTg5NDU4MzM0NDY2TDE2NS4yNTA4OTg0Mzc1LDE1NS40NzMwMTE0MTA0MjY0NEwxNjkuNzE4MzQ2MzU0MTY2NjcsMTU3Ljk5NTY2MzMyMjk4MDYyTDE3NC4xODU3OTQyNzA4MzMzNiwxNTguMDU1NDUzOTc2NTAxN0wxNzguNjUzMjQyMTg3NDk5OTgsMTU4Ljg0OTg4OTYyNDE3MTc3TDE4My4xMjA2OTAxMDQxNjY2NywxNTQuNzg0MjM4OTMxMTU4MkwxODcuNTg4MTM4MDIwODMzMzMsMTU4LjI3MDc5NjAwNjYxMTZMMTkyLjA1NTU4NTkzNzUsMTUzLjUwMjc4MzQ2NDk4MTFMMTk2LjUyMzAzMzg1NDE2NjY3LDE1Ni4zNjY4NDI5MDA2OTI0M0wyMDAuOTkwNDgxNzcwODMzMzMsMTU2LjgxNTI5NzY2Mzc5ODhMMjA1LjQ1NzkyOTY4NzQ5OTk4LDE1Ny4xNjEzMTk3NDUyMTY3TDIwOS45MjUzNzc2MDQxNjY2NywxNTkuNTU1NzE4MTM2NTY5MUwyMTQuMzkyODI1NTIwODMzMzMsMTU3LjE1OTY2NjAwNjcxMTgzTDIxOC44NjAyNzM0Mzc1LDE1OC4xMDM5ODA2Mjc3ODg0MkwyMjMuMzI3NzIxMzU0MTY2NjcsMTUyLjMxOTgxNTA3NDA4MDk2TDIyNy43OTUxNjkyNzA4MzMzMywxNTcuNzU1NjczNzI2NTQ0OUwyMzIuMjYyNjE3MTg3NSwxNTguNjQ2NTg0MjkzMzY2NzFMMjM2LjczMDA2NTEwNDE2NjY3LDE2NC45NTg1NDI1NDE0Nzk0NkwyNDEuMTk3NTEzMDIwODMzMzYsMTU5LjM5NzYzNTk0MTEyMTg1TDI0NS42NjQ5NjA5Mzc0OTk5OCwxNTkuNjY3NDQ4NTM3MjAxMTUiIHN0cm9rZS13aWR0aD0iMnB4IiBzdHJva2U9InJnYigyMzgsIDUxLCAxMTkpIi8+PC9nPjxnPjxwYXRoIGZpbGw9Im5vbmUiIHN0eWxlPSJmaWxsOiBub25lOyIgZD0iTTI2Ljc2MDAxMzAyMDgzMzMzNCwtNjYuMTQ4MTgzOTAyMTA0NzJMMzEuMjI3NDYwOTM3NTAwMDAyLDIuNDI2OTE0MTIxOTU1NjAwM0wzNS42OTQ5MDg4NTQxNjY2NiwzMy40ODE5MzkxMDIyMTI1Nkw0MC4xNjIzNTY3NzA4MzMzMzQsNTcuMzIyMTEyNDE0MTgyNEw0NC42Mjk4MDQ2ODc1MDAwMDUsNjkuODgzNTIzMDk0MzY5NEw0OS4wOTcyNTI2MDQxNjY2Nyw4NC42MzUxMDc3OTYxNjE3Mkw1My41NjQ3MDA1MjA4MzMzMzQsODcuMTIzMjE0NDY4NDc3MzlMNTguMDMyMTQ4NDM3NSw3OC4zMDI5NTc0NjI5Njg2TDYyLjQ5OTU5NjM1NDE2NjY2LDk4Ljk1NjUyMDM2ODAyNjg0TDY2Ljk2NzA0NDI3MDgzMzMzLDEwOS4zMzk3NDk2ODc1NzU1OUw3MS40MzQ0OTIxODc1LDEwMS42Nzk4MDk0MzM0NzYyTDc1LjkwMTk0MDEwNDE2NjY3LDExMy45MzMyNDAyNTkxMDY3M0w4MC4zNjkzODgwMjA4MzMzNCwxMTAuMDY3NDE3NTE2MTMyNDJMODQuODM2ODM1OTM3NSw5NC40ODkxNTM0MTIxMzdMODkuMzA0MjgzODU0MTY2NjcsMTE0LjgzMzczNzA1NTUyMjA4TDkzLjc3MTczMTc3MDgzMzMzLDEyMC4xMjI3NjQ1NDI1MTMzOEw5OC4yMzkxNzk2ODc1LDExNi4wMTM2MDYyOTAxNzU2OUwxMDIuNzA2NjI3NjA0MTY2NjcsMTI4LjE3ODYyOTc3NjA3NTU4TDEwNy4xNzQwNzU1MjA4MzMzMywxMzUuMzUyMTI4MTMyODU3MDJMMTExLjY0MTUyMzQzNzUsMTM5Ljc4NzExNjc4ODM4MTVMMTE2LjEwODk3MTM1NDE2NjY2LDEzMC4xODY4Njc4Mzc1NTA3NUwxMjAuNTc2NDE5MjcwODMzMzMsMTI4LjI4MjE3NTEzODA4NDE3TDEyNS4wNDM4NjcxODc1MDAwMSwxMzkuMTM5NDAyNTEwOTQ4MzRMMTI5LjUxMTMxNTEwNDE2NjY3LDEzOC42Nzk5MDMyMjk2ODUzNUwxMzMuOTc4NzYzMDIwODMzMzMsMTQwLjc3OTY3MzgzODI4OTc0TDEzOC40NDYyMTA5Mzc0OTk5OCwxMzcuODA3MzkxMTE0NDM1NDNMMTQyLjkxMzY1ODg1NDE2NjY3LDEzNC4wODI5MzU4ODk3NzMxM0wxNDcuMzgxMTA2NzcwODMzMzMsMTQwLjYzODM1MTIxNDQwMTA3TDE1MS44NDg1NTQ2ODc1LDEzOC4wMzgxODY1MTU0NTE0TDE1Ni4zMTYwMDI2MDQxNjY2NywxNDEuNTM1NjE2MTc5NjcyNDVMMTYwLjc4MzQ1MDUyMDgzMzMzLDE0OS40OTcxMzE4MzQ3MDEwNEwxNjUuMjUwODk4NDM3NSwxNTQuNjA3MDk4OTE1NzIzNjdMMTY5LjcxODM0NjM1NDE2NjY3LDE1My43OTIxMTM4NzgyODMyTDE3NC4xODU3OTQyNzA4MzMzNiwxNTMuMjQ5MzkxMDMwMzkwMjZMMTc4LjY1MzI0MjE4NzQ5OTk4LDE1Ni41NjE5MjUxOTc2MzUxTDE4My4xMjA2OTAxMDQxNjY2NywxNTkuNDUwMTgzMTE1Mzg3N0wxODcuNTg4MTM4MDIwODMzMzMsMTYwLjIyOTg0MDc3MjM5ODE1TDE5Mi4wNTU1ODU5Mzc1LDE0OS4yMjI1MjI3ODMzNjQxM0wxOTYuNTIzMDMzODU0MTY2NjcsMTU1Ljc2MzgxODYwNzI1MjFMMjAwLjk5MDQ4MTc3MDgzMzMzLDE1NS45NjQwMjA2NzIwMjU0TDIwNS40NTc5Mjk2ODc0OTk5OCwxNTIuMTQyNjI0MzM1OTQ4NkwyMDkuOTI1Mzc3NjA0MTY2NjcsMTU4LjY2MTE4Njk5ODcyMTFMMjE0LjM5MjgyNTUyMDgzMzMzLDE1Ny43NDA1ODI5NjY5MTc4NkwyMTguODYwMjczNDM3NSwxNTQuODQ5Nzg2MTY0MzI3NzhMMjIzLjMyNzcyMTM1NDE2NjY3LDE1OC43NzcxNTMyOTA4OTcxM0wyMjcuNzk1MTY5MjcwODMzMzMsMTYwLjg2MDA3MTU2OTM2NzczTDIzMi4yNjI2MTcxODc1LDE2My4xNzEzNDUyNDg3MTY4MkwyMzYuNzMwMDY1MTA0MTY2NjcsMTYwLjM5NDkwMjIxODI1ODI3TDI0MS4xOTc1MTMwMjA4MzMzNiwxNjEuMzAwMjc0NjA0ODk0NTNMMjQ1LjY2NDk2MDkzNzQ5OTk4LDE2My45MTEwNjA2MDIwOTI2NSIgc3Ryb2tlLXdpZHRoPSIycHgiIHN0cm9rZT0icmdiKDUxLCAxODcsIDIzOCkiLz48L2c+PGc+PHBhdGggZmlsbD0ibm9uZSIgc3R5bGU9ImZpbGw6IG5vbmU7IiBkPSJNNDkuMDk3MjUyNjA0MTY2NjcsLTIzLjkyMzcwMzU4NTE1MDE5M0w1My41NjQ3MDA1MjA4MzMzMzQsMTEuNjQwOTE3OTU0MTA1NjlMNTguMDMyMTQ4NDM3NSwzOC43OTIxMzAzNTczNjAxMUw2Mi40OTk1OTYzNTQxNjY2Niw1NS41ODE3NjQ3MjYxMDc2NEw2Ni45NjcwNDQyNzA4MzMzMyw2Mi4yMzMzMjMyNTU4ODU2Mkw3MS40MzQ0OTIxODc1LDcyLjIwODIxNDk3NTM0NTY4TDc1LjkwMTk0MDEwNDE2NjY3LDc3LjAyODkyNDQ4MTQwMzlMODAuMzY5Mzg4MDIwODMzMzQsODEuMDAyMDMxMjc5MDY5OUw4NC44MzY4MzU5Mzc1LDg2LjExNDExMjg2NDMxODM3TDg5LjMwNDI4Mzg1NDE2NjY3LDkwLjUzNTc2NDY2MjgyMDQ0TDkzLjc3MTczMTc3MDgzMzMzLDk1Ljk3MTE3NDA5Nzc0MjZMOTguMjM5MTc5Njg3NSw5OC44Nzk5Njc3NTE1MjQ5MkwxMDIuNzA2NjI3NjA0MTY2NjcsMTAyLjkxOTg1NzYyMzExNzc5TDEwNy4xNzQwNzU1MjA4MzMzMywxMDcuOTkzNTc3NTgxNjAwMzJMMTExLjY0MTUyMzQzNzUsMTExLjEzMDc3MDMxNTQ0NDM3TDExNi4xMDg5NzEzNTQxNjY2NiwxMTQuOTM0MDE1OTAyNzE2NzFMMTIwLjU3NjQxOTI3MDgzMzMzLDExMi45MTQyNjQ4Nzc3MDAzTDEyNS4wNDM4NjcxODc1MDAwMSwxMjAuNjI5NjY2NzQ5Njg2NDVMMTI5LjUxMTMxNTEwNDE2NjY3LDEyMi41NjY3NTQyMjQ4Njc3NEwxMzMuOTc4NzYzMDIwODMzMzMsMTI1LjM0NDY2MDcyNzAxOTlMMTM4LjQ0NjIxMDkzNzQ5OTk4LDEyNC41NTEyMTA4MDgwMDIyOEwxNDIuOTEzNjU4ODU0MTY2NjcsMTI4LjgzNzE3NzQ4NjMwODQ2TDE0Ny4zODExMDY3NzA4MzMzMywxMzEuODAyMTQ2MjAzODE2MDJMMTUxLjg0ODU1NDY4NzUsMTMwLjAwMjEwMzIwODM2NjI2TDE1Ni4zMTYwMDI2MDQxNjY2NywxMzQuMjM0MDI5ODAyNzcxNTJMMTYwLjc4MzQ1MDUyMDgzMzMzLDEzNi40MTMxMjg5NzU4NDYwNEwxNjUuMjUwODk4NDM3NSwxMzcuOTY4ODcyODI4MjEzNjVMMTY5LjcxODM0NjM1NDE2NjY3LDEzOC4zNDk5NTk0MzgxMjA2TDE3NC4xODU3OTQyNzA4MzMzNiwxMjkuNzk1ODc4OTAyNDEwNUwxNzguNjUzMjQyMTg3NDk5OTgsMTM3LjIwNjgyMTE0ODA0MzI4TDE4My4xMjA2OTAxMDQxNjY2NywxNDAuMDk5ODE1MDQ5NDc0MkwxODcuNTg4MTM4MDIwODMzMzMsMTQxLjI1MzQ0MDYzMjgyOTZMMTkyLjA1NTU4NTkzNzUsMTQzLjY5NzQxNzg1MzA1ODI4TDE5Ni41MjMwMzM4NTQxNjY2NywxNDQuODYyMzAwNjY0NDY1NjZMMjAwLjk5MDQ4MTc3MDgzMzMzLDE0NC4yMjQxMjQ5Mzk1NTA4TDIwNS40NTc5Mjk2ODc0OTk5OCwxMzUuMTg4NjQ4MTU3ODA2MTRMMjA5LjkyNTM3NzYwNDE2NjY3LDE0MS45MjYxMDE0MTc2OTg4TDIxNC4zOTI4MjU1MjA4MzMzMywxMzQuOTM1NDcwMTI1ODU3MUwyMTguODYwMjczNDM3NSwxNDIuMjU3NTEwMTU4NzY0MUwyMjMuMzI3NzIxMzU0MTY2NjcsMTQ3LjA0NDU3MjM2NDc5NjE4TDIyNy43OTUxNjkyNzA4MzMzMywxNDcuMjM1MDM4MDIyMTE4MThMMjMyLjI2MjYxNzE4NzUsMTQzLjkzOTkzMTIzODUxODQ1TDIzNi43MzAwNjUxMDQxNjY2NywxNDUuMTUyNjE1MDczMjQ2OTJMMjQxLjE5NzUxMzAyMDgzMzM2LDE0Ni4wMjg4NDg4MTA3NTc5OEwyNDUuNjY0OTYwOTM3NDk5OTgsMTQ5LjkwNTM0MjAxNzg5OTk1IiBzdHJva2Utd2lkdGg9IjJweCIgc3Ryb2tlPSJyZ2IoMjA0LCA1MSwgMTcpIi8+PC9nPjxnPjxwYXRoIGZpbGw9Im5vbmUiIHN0eWxlPSJmaWxsOiBub25lOyIgZD0iTTMxLjIyNzQ2MDkzNzUwMDAwMiwtNC4wNDk0NjIzOTQxNjgwMjNMMzUuNjk0OTA4ODU0MTY2NjYsMzguODkzMDY0NjYzMzcxNjJMNDAuMTYyMzU2NzcwODMzMzM0LDY3LjY2OTg4NzI2NDUzMzA2TDQ0LjYyOTgwNDY4NzUwMDAwNSw4My4yMjg5OTYzOTY0MTExNkw0OS4wOTcyNTI2MDQxNjY2Nyw5Mi40MzczMDYxMDE0MjI1NUw1My41NjQ3MDA1MjA4MzMzMzQsOTYuMDQyNjE0NjIyOTUyNjRMNTguMDMyMTQ4NDM3NSwxMDcuMjcyMzczMDQ5OTk5MzVMNjIuNDk5NTk2MzU0MTY2NjYsMTExLjM3NDkyMzMwOTUzNzQxTDY2Ljk2NzA0NDI3MDgzMzMzLDExOC44NzY4MTY0MDc0MTQyN0w3MS40MzQ0OTIxODc1LDExOS4wNzU1MDYyNTg1ODk5TDc1LjkwMTk0MDEwNDE2NjY3LDEyMC4wMDY3MDc2MzQ1NDUwMUw4MC4zNjkzODgwMjA4MzMzNCwxMjIuMzAzMjg2MjM3NjcyOTVMODQuODM2ODM1OTM3NSwxMTEuMDI4NjE4NTIzMDgwMDNMODkuMzA0MjgzODU0MTY2NjcsMTE2LjA2NjIxMDA2MzE4NzZMOTMuNzcxNzMxNzcwODMzMzMsMTEyLjQ0NjE4NzYwNDU3OTAyTDk4LjIzOTE3OTY4NzUsMTE1Ljk0NjQ3NjAzNjU4NzJMMTAyLjcwNjYyNzYwNDE2NjY3LDExNC45MTM1OTg4NjExMTM2N0wxMDcuMTc0MDc1NTIwODMzMzMsMTE2LjY2NDU0OTU3MzM0NzkxTDExMS42NDE1MjM0Mzc1LDExNC4zMDM0MDg4MTYyNTg3MkwxMTYuMTA4OTcxMzU0MTY2NjYsMTIwLjkxNjIxMTI3MzA4NDA0TDEyMC41NzY0MTkyNzA4MzMzMywxMjYuMDIwNTA2NDg2MDEzOTNMMTI1LjA0Mzg2NzE4NzUwMDAxLDEzNC4xNjc3MjI1NDU2OTE2MkwxMjkuNTExMzE1MTA0MTY2NjcsMTQxLjA3OTYzMjA1NzgyMzU3TDEzMy45Nzg3NjMwMjA4MzMzMywxMzguMjQyMTI0MTA0MzIyTDEzOC40NDYyMTA5Mzc0OTk5OCwxMzguODg1MDY2OTIxODIwNDhMMTQyLjkxMzY1ODg1NDE2NjY3LDE0NS44NTUwMjY4NjcxODE1NUwxNDcuMzgxMTA2NzcwODMzMzMsMTQ1LjcwNjY2NTc2NDI1NDU4TDE1MS44NDg1NTQ2ODc1LDE0OS43ODYxNDAyNzIxMDEyOEwxNTYuMzE2MDAyNjA0MTY2NjcsMTUxLjMxMTA2MzE5NTA3NDdMMTYwLjc4MzQ1MDUyMDgzMzMzLDE0NS44NDUzOTkxMzc0MjIyMkwxNjUuMjUwODk4NDM3NSwxMzguMDU4MzkzOTU5MDA0NDZMMTY5LjcxODM0NjM1NDE2NjY3LDE0Ni45MTE0NjY3ODcwOTQ4NEwxNzQuMTg1Nzk0MjcwODMzMzYsMTQ4LjE0NTExMTEyNzE3ODY0TDE3OC42NTMyNDIxODc0OTk5OCwxNTIuMDU1MTQ3MTUzODg0NzdMMTgzLjEyMDY5MDEwNDE2NjY3LDE1OC44MTgwMTYxMjU2Mjc0OEwxODcuNTg4MTM4MDIwODMzMzMsMTU0LjIxMzkyNzQ3NDI1OTEyTDE5Mi4wNTU1ODU5Mzc1LDE0NC42ODYyODcyNDE1NDg5TDE5Ni41MjMwMzM4NTQxNjY2NywxNTEuMDAxMzAwMDUwNDAyNjhMMjAwLjk5MDQ4MTc3MDgzMzMzLDE1NS4wMDY2Nzg0MjM4MjI2MkwyMDUuNDU3OTI5Njg3NDk5OTgsMTUzLjY2OTcyNDc4NTEzNDJMMjA5LjkyNTM3NzYwNDE2NjY3LDE1Ni40MTg5MzE4MjMwMTQwMkwyMTQuMzkyODI1NTIwODMzMzMsMTU3LjYwOTU3NDA0MDc0MDA2TDIxOC44NjAyNzM0Mzc1LDE1OS4wMjI5MjAzMTYyODY5M0wyMjMuMzI3NzIxMzU0MTY2NjcsMTU5LjEyNTY0MjI4MjI3NDkyTDIyNy43OTUxNjkyNzA4MzMzMywxNjAuOTM4NTcxODA4MzU2NEwyMzIuMjYyNjE3MTg3NSwxNjIuOTQzMjcyOTc0NzM2MDNMMjM2LjczMDA2NTEwNDE2NjY3LDE1OS45MDYzNzY3OTY4ODA2TDI0MS4xOTc1MTMwMjA4MzMzNiwxNTguNDMxMjY4ODgwNDk3OThMMjQ1LjY2NDk2MDkzNzQ5OTk4LDE2MS4zMTU3MTk3MDk2NTciIHN0cm9rZS13aWR0aD0iMnB4IiBzdHJva2U9InJnYigwLCAxMTksIDE4NykiLz48L2c+PC9nPjwvZz48L2c+PGcgb3BhY2l0eT0iMC4yIj48Zz48Zz48Zz48cGF0aCBmaWxsPSJub25lIiBzdHlsZT0iZmlsbDogbm9uZTsiIGQ9Ik0yNi43NjAwMTMwMjA4MzMzMzQsMzIuNjIzMjg0NTIzNjg1NzU0TDMxLjIyNzQ2MDkzNzUwMDAwMiw4Ny44NzM2MDM4NjU1MDQyNUwzNS42OTQ5MDg4NTQxNjY2Niw4Ni45MDYzMzUzNDM5MTcxOUw0MC4xNjIzNTY3NzA4MzMzMzQsMTA1Ljk2OTYzOTIxMTg5MzA3TDQ0LjYyOTgwNDY4NzUwMDAwNSwxMDcuOTE2MzU2NDAyMTM4ODZMNDkuMDk3MjUyNjA0MTY2NjcsMTIwLjM5Nzk4NTAwODg1NTY0TDUzLjU2NDcwMDUyMDgzMzMzNCw5OC42MTE3MzE0MTk5NjA2M0w1OC4wMzIxNDg0Mzc1LDEyNy4wODgyMzc1ODExNTM2OUw2Mi40OTk1OTYzNTQxNjY2NiwxMjcuMzg0NzkyMTA5MzMwNDhMNjYuOTY3MDQ0MjcwODMzMzMsMTE5LjQ2NDA2OTk0MjYzMzI5TDcxLjQzNDQ5MjE4NzUsMTEwLjU5NTA5MTI3MzM4NzI1TDc1LjkwMTk0MDEwNDE2NjY3LDExNy4zMzYwMjQyNDcxMDk4OEw4MC4zNjkzODgwMjA4MzMzNCwxMzEuODgzMzY5MTY1MTYyMjRMODQuODM2ODM1OTM3NSwxMzUuNTc5NzQxNTg3MjQxNDdMODkuMzA0MjgzODU0MTY2NjcsMTMwLjEyNzEzODQ4NTUxMTEzTDkzLjc3MTczMTc3MDgzMzMzLDE0Mi43OTA2MjY3NjE4MTM5NEw5OC4yMzkxNzk2ODc1LDEzNS4wNzM1NjAzMTczNTczNkwxMDIuNzA2NjI3NjA0MTY2NjcsMTM2LjMwMTk3ODUxODU2NTQ4TDEwNy4xNzQwNzU1MjA4MzMzMywxMjkuMjg3MTQ3OTIxODIwNDZMMTExLjY0MTUyMzQzNzUsMTQxLjI1MTY0MjI4NDI5Mzk1TDExNi4xMDg5NzEzNTQxNjY2NiwxNTAuNzM5MzM1NzkyNzYwMDRMMTIwLjU3NjQxOTI3MDgzMzMzLDEzNS45MzAzMjgzNDY3ODg4NUwxMjUuMDQzODY3MTg3NTAwMDEsMTM5LjAzOTM5Nzg4Nzg4NTU3TDEyOS41MTEzMTUxMDQxNjY2NywxNDcuODAwODc5ODkwNzIwMDRMMTMzLjk3ODc2MzAyMDgzMzMzLDE1My41Nzc1ODQ4MDA2MjA4NUwxMzguNDQ2MjEwOTM3NDk5OTgsMTYyLjkxMjg1MjQ2ODU4OTkzTDE0Mi45MTM2NTg4NTQxNjY2NywxNjEuMjc3NzYzODgzMjcyOEwxNDcuMzgxMTA2NzcwODMzMzMsMTU5LjM3MTkyODAyODc2MjM0TDE1MS44NDg1NTQ2ODc1LDE2Mi4xODc0NDY4Njc0MjYyMkwxNTYuMzE2MDAyNjA0MTY2NjcsMTYxLjYwMTIwNjMxNTA2MDQ0TDE2MC43ODM0NTA1MjA4MzMzMywxNTUuNzQyMzU0MDk3NDY1NjZMMTY1LjI1MDg5ODQzNzUsMTUwLjkzODY4NzI1MjUwMTY0TDE2OS43MTgzNDYzNTQxNjY2NywxNjEuNzc5NjQwODkwNjU3OUwxNzQuMTg1Nzk0MjcwODMzMzYsMTU4LjE0NTEzOTk1MjUwMDY0TDE3OC42NTMyNDIxODc0OTk5OCwxNjAuMDQxNTQzMDYxNTM0NTVMMTgzLjEyMDY5MDEwNDE2NjY3LDE0OC42ODU3NjI5OTY0NzQ5TDE4Ny41ODgxMzgwMjA4MzMzMywxNjMuNTAwNjMxNTY1ODQ4OThMMTkyLjA1NTU4NTkzNzUsMTQ2LjM1MDc2NDY5Njc5NjcyTDE5Ni41MjMwMzM4NTQxNjY2NywxNjAuNjYyOTMyMDM4MzA3MTZMMjAwLjk5MDQ4MTc3MDgzMzMzLDE1Ny40ODc5Nzk4MDY5NTk2M0wyMDUuNDU3OTI5Njg3NDk5OTgsMTU3LjY4MDM1Mjg2NjY0OTYzTDIwOS45MjUzNzc2MDQxNjY2NywxNjMuMTQ3MzE1NzIwNzE3MUwyMTQuMzkyODI1NTIwODMzMzMsMTUzLjU2NTU4NzgxMzY1NTUzTDIxOC44NjAyNzM0Mzc1LDE1OS41MjA0NTI1NTg5OTQzTDIyMy4zMjc3MjEzNTQxNjY2NywxNDMuNjQzNTY2NzQ1MDIyOTJMMjI3Ljc5NTE2OTI3MDgzMzMzLDE2NS45MDk0NjE3MDQzOTMyTDIzMi4yNjI2MTcxODc1LDE1OS45ODI5NTAxNDM1MTYwNEwyMzYuNzMwMDY1MTA0MTY2NjcsMTc0LjQyNjQ3OTkxMzI5NDMyTDI0MS4xOTc1MTMwMjA4MzMzNiwxNTEuMDU2Mjc2MDQwNzcyNkwyNDUuNjY0OTYwOTM3NDk5OTgsMTYwLjA3MjE2NzQzMTMxNDc3IiBzdHJva2Utd2lkdGg9IjJweCIgc3Ryb2tlPSJyZ2IoMjM4LCA1MSwgMTE5KSIvPjwvZz48Zz48cGF0aCBmaWxsPSJub25lIiBzdHlsZT0iZmlsbDogbm9uZTsiIGQ9Ik0yNi43NjAwMTMwMjA4MzMzMzQsLTY2LjE0ODE4MzkwMjEwNDcyTDMxLjIyNzQ2MDkzNzUwMDAwMiw0My41NzE5NzI5MzYzOTE4TDM1LjY5NDkwODg1NDE2NjY2LDYzLjI5NDc2MzA4MzI1OTI1TDQwLjE2MjM1Njc3MDgzMzMzNCw4NS4zNTgxNTYyMjkwNTg4OEw0NC42Mjk4MDQ2ODc1MDAwMDUsODYuMjgzNzAwODc4NDIxNDRMNDkuMDk3MjUyNjA0MTY2NjcsMTA1LjA0MTg2MDAwOTIzMzEzTDUzLjU2NDcwMDUyMDgzMzMzNCw5MC42ODEyNDY4MTk1OTU0N0w1OC4wMzIxNDg0Mzc1LDY1LjQ0MjkzODA3NDQ2OTU1TDYyLjQ5OTU5NjM1NDE2NjY2LDEyOS40MTY1MTM5MDQ5MjkxM0w2Ni45NjcwNDQyNzA4MzMzMywxMjQuNzU3NjM1MTI0MDI3NzFMNzEuNDM0NDkyMTg3NSw5MC4yNTkzNzQxNDY2NjAxNUw3NS45MDE5NDAxMDQxNjY2NywxMzIuMjQ2NzAzODY4MTEwOTZMODAuMzY5Mzg4MDIwODMzMzQsMTA0LjI4MTMwNTk4MzY2MjU5TDg0LjgzNjgzNTkzNzUsNzEuMTUyMjc2Njk3MjU4MTNMODkuMzA0MjgzODU0MTY2NjcsMTQ1LjMyNjY5ODIyNjIzMzNMOTMuNzcxNzMxNzcwODMzMzMsMTI4LjA1MjU3NTU0MTAzOTNMOTguMjM5MTc5Njg3NSwxMDkuODUxNjA3NzY5NzI3NjlMMTAyLjcwNjYyNzYwNDE2NjY3LDE0Ni40MjMwNzYzMDY3ODAxNkwxMDcuMTc0MDc1NTIwODMzMzMsMTQ2LjExMTI4Mjg1Nzc1NThMMTExLjY0MTUyMzQzNzUsMTQ2LjQzOTE5NDM5NjEzODE2TDExNi4xMDg5NzEzNTQxNjY2NiwxMTUuNzg3MDIwOTExNzczMDNMMTIwLjU3NjQxOTI3MDgzMzMzLDEyNS40MjUxOTg3NjM2MDg5MkwxMjUuMDQzODY3MTg3NTAwMDEsMTU1LjQyNTAyOTIxMzIyOThMMTI5LjUxMTMxNTEwNDE2NjY3LDEzNy45OTA2NTk3NTA5OTgwMkwxMzMuOTc4NzYzMDIwODMzMzMsMTQzLjkyOTMxNDgyNjkyNTU4TDEzOC40NDYyMTA5Mzc0OTk5OCwxMzMuMzQ4OTc5NzA0MDgyTDE0Mi45MTM2NTg4NTQxNjY2NywxMjguNDk2MjYyNTgyNjM5ODJMMTQ3LjM4MTEwNjc3MDgzMzMzLDE1MC40NzE0NjQxMzcyMzYyN0wxNTEuODQ4NTU0Njg3NSwxMzQuMTM3OTQxODYyMTQ2MDVMMTU2LjMxNjAwMjYwNDE2NjY3LDE0Ni43ODE3NTg3NDMwMjc4NEwxNjAuNzgzNDUwNTIwODMzMzMsMTYxLjQzOTQwMjY3NzExODc4TDE2NS4yNTA4OTg0Mzc1LDE2Mi4yNzIwNDg1MjA1NDUxNkwxNjkuNzE4MzQ2MzU0MTY2NjcsMTUyLjU2OTYzNjQxOTQxNTQ3TDE3NC4xODU3OTQyNzA4MzMzNiwxNTIuNDM1MzA2Nzk3NDI0OTRMMTc4LjY1MzI0MjE4NzQ5OTk4LDE2MS41MzA3MjYzMDYxNDA0MkwxODMuMTIwNjkwMTA0MTY2NjcsMTYzLjc4MjU2OTkxNzUzOTc1TDE4Ny41ODgxMzgwMjA4MzMzMywxNjEuMzk5MzI3MjQ1ODUxMzRMMTkyLjA1NTU4NTkzNzUsMTMyLjcxMTU0NTkwMTk5MzlMMTk2LjUyMzAzMzg1NDE2NjY3LDE2NS41NzU3NjIzMDY2NTA0NkwyMDAuOTkwNDgxNzcwODMzMzMsMTU2LjI2NDMyMzc2ODUxNjM2TDIwNS40NTc5Mjk2ODc0OTk5OCwxNDYuNDEwNTI5ODM5NDk1OEwyMDkuOTI1Mzc3NjA0MTY2NjcsMTY4LjQzOTAzMDk4NTAzNzQ4TDIxNC4zOTI4MjU1MjA4MzMzMywxNTYuMzU5Njc2OTE5ODc3NUwyMTguODYwMjczNDM3NSwxNTAuNTEzNTkwOTYxNjk0N0wyMjMuMzI3NzIxMzU0MTY2NjcsMTY0LjY2ODIwMzk3OTczMDZMMjI3Ljc5NTE2OTI3MDgzMzMzLDE2My45ODQ0NDg5ODY3NDg4NEwyMzIuMjYyNjE3MTg3NSwxNjYuNjM4MjU1NzY3NTI0MjRMMjM2LjczMDA2NTEwNDE2NjY3LDE1Ni4yMzAyMzc2NzI3MjYzTDI0MS4xOTc1MTMwMjA4MzMzNiwxNjIuNjU4MzMzMTg0ODE4NDJMMjQ1LjY2NDk2MDkzNzQ5OTk4LDE2Ny44MjcyMzk1OTc4MzcxMiIgc3Ryb2tlLXdpZHRoPSIycHgiIHN0cm9rZT0icmdiKDUxLCAxODcsIDIzOCkiLz48L2c+PGc+PHBhdGggZmlsbD0ibm9uZSIgc3R5bGU9ImZpbGw6IG5vbmU7IiBkPSJNMzUuNjk0OTA4ODU0MTY2NjYsLTIzOS4wMDMwNzk5MTYwNDAxMkw0MC4xNjIzNTY3NzA4MzMzMzQsNC42NzEyMjA2OTQ5Nzg5OTdMNDQuNjI5ODA0Njg3NTAwMDA1LDQ1LjQyNzAxODQ5MzQxMzkwNEw0OS4wOTcyNTI2MDQxNjY2Nyw1NS4zMzMzNzkzNzI5NTQzNTRMNTMuNTY0NzAwNTIwODMzMzM0LDYyLjQ5ODg5NTc4OTE4NjE0TDU4LjAzMjE0ODQzNzUsNzguMzc4ODU4NjkyOTQ0MDRMNjIuNDk5NTk2MzU0MTY2NjYsODAuMzQzMjE0MjAxNDMwNDZMNjYuOTY3MDQ0MjcwODMzMzMsNzIuMTEwMTEyNDczMzY4NjJMNzEuNDM0NDkyMTg3NSw4Ny4wODAwODEwMjA3OTIzTDc1LjkwMTk0MDEwNDE2NjY3LDg0LjIzMzc1NDY1MjI0MTg0TDgwLjM2OTM4ODAyMDgzMzM0LDg2Ljk0ODcxODU5MjUyNDVMODQuODM2ODM1OTM3NSw5My43NzIyMjAxNDIxODU2N0w4OS4zMDQyODM4NTQxNjY2Nyw5Ny4xNjMwNDQ4NzQ4NjY3OEw5My43NzE3MzE3NzA4MzMzMywxMDQuMTIwNDU0Nzc4MjczODhMOTguMjM5MTc5Njg3NSwxMDMuMjQxOTI3MzI4MjA5MDZMMTAyLjcwNjYyNzYwNDE2NjY3LDEwOC45Nzg2NjY3MDI5MDYyN0wxMDcuMTc0MDc1NTIwODMzMzMsMTE1LjYwMzM4NDU4OTE1NTVMMTExLjY0MTUyMzQzNzUsMTE1LjgzNjI3MjY2NDM2ODE0TDExNi4xMDg5NzEzNTQxNjY2NiwxMjAuNjM4Njc1NzA0NTk4NDFMMTIwLjU3NjQxOTI3MDgzMzMzLDEwOS44ODQ3MDQ4MDA5NDM1MUwxMjUuMDQzODY3MTg3NTAwMDEsMTMyLjIwMjYxNzIzMDUxNDY1TDEyOS41MTEzMTUxMDQxNjY2NywxMjUuNDcyMzYyNDkwOTkxNzNMMTMzLjk3ODc2MzAyMDgzMzMzLDEyOS41MTE1MDA3MzYwNzc2TDEzOC40NDYyMTA5Mzc0OTk5OCwxMjMuMzYxMDM5MzEzMTc3MjRMMTQyLjkxMzY1ODg1NDE2NjY3LDEzNS4yNjYxMTY1MzcxNTM3MkwxNDcuMzgxMTA2NzcwODMzMzMsMTM2LjI0OTU5NDcyODE1MTk1TDE1MS44NDg1NTQ2ODc1LDEyNy4zMDIwNDAzNzMyODU1OUwxNTYuMzE2MDAyNjA0MTY2NjcsMTQwLjU4MTkxNzM1NTQ1NzkzTDE2MC43ODM0NTA1MjA4MzMzMywxMzkuNjgxNzc3MDEyODQ0ODZMMTY1LjI1MDg5ODQzNzUsMTQwLjMwMjQ4ODI5NzIyNDAyTDE2OS43MTgzNDYzNTQxNjY2NywxMzguOTIxNTg5MzA3NDg2OThMMTc0LjE4NTc5NDI3MDgzMzM2LDExNi45NjQ3NTg3MTE1NTY1N0wxNzguNjUzMjQyMTg3NDk5OTgsMTQ4LjMyMzIzNDE5Nzk5NDA1TDE4My4xMjA2OTAxMDQxNjY2NywxNDQuNDM5MzA1ODI3MDIxNTdMMTg3LjU4ODEzODAyMDgzMzMzLDE0Mi45ODM4Nzg5OTAwMTQzOEwxOTIuMDU1NTg1OTM3NSwxNDcuMzYzMzgzNjYwNzEzODJMMTk2LjUyMzAzMzg1NDE2NjY3LDE0Ni42MDk2MjQ4NzUwODg1TDIwMC45OTA0ODE3NzA4MzMzMywxNDMuMjY2ODYxMzU0MzExM0wyMDUuNDU3OTI5Njg3NDk5OTgsMTIxLjYzNTQzMzAwMzMwNjM3TDIwOS45MjUzNzc2MDQxNjY2NywxNTIuMDMyMjgxMjk5NDMyMUwyMTQuMzkyODI1NTIwODMzMzMsMTI0LjQ0OTUyMzE5MzE0MDhMMjE4Ljg2MDI3MzQzNzUsMTUzLjI0MDU3MDIwNDk1MzM0TDIyMy4zMjc3MjEzNTQxNjY2NywxNTQuMjI1MTY1NjcyNjAwMjdMMjI3Ljc5NTE2OTI3MDgzMzMzLDE0Ny41MjA3MzY1MDgwNzE0TDIzMi4yNjI2MTcxODc1LDEzOC45OTcyNzEwNjM0MjcxMkwyMzYuNzMwMDY1MTA0MTY2NjcsMTQ2Ljk3MTY0MDgyNTI3MTU4TDI0MS4xOTc1MTMwMjA4MzMzNiwxNDcuMzQzMTk5NDE2OTk1MDJMMjQ1LjY2NDk2MDkzNzQ5OTk4LDE1NS43MjAwODE4Mjg1MzQ1NyIgc3Ryb2tlLXdpZHRoPSIycHgiIHN0cm9rZT0icmdiKDIwNCwgNTEsIDE3KSIvPjwvZz48Zz48cGF0aCBmaWxsPSJub25lIiBzdHlsZT0iZmlsbDogbm9uZTsiIGQ9Ik0yNi43NjAwMTMwMjA4MzMzMzQsLTc1LjAwNTAwMDc0MDI4OTcyTDMxLjIyNzQ2MDkzNzUwMDAwMiwzOC41MjM4NjA2MTM1MDUwMTVMMzUuNjk0OTA4ODU0MTY2NjYsODAuMTE3ODkwNjM4NjA5NzFMNDAuMTYyMzU2NzcwODMzMzM0LDEwMS41MTE0MzA2NDM0OTg4OEw0NC42Mjk4MDQ2ODc1MDAwMDUsMTAzLjU0Mjk2OTI3ODk5MTIxTDQ5LjA5NzI1MjYwNDE2NjY3LDEwNS4xNzU3MTM0MTQ5NDcxN0w1My41NjQ3MDA1MjA4MzMzMzQsMTAxLjE5ODI2MzQ5MzY3Njk2TDU4LjAzMjE0ODQzNzUsMTIzLjY0NTQ2ODY0MjMxNDI2TDYyLjQ5OTU5NjM1NDE2NjY2LDExNy40MjUzODgwNjI5OTM2OEw2Ni45NjcwNDQyNzA4MzMzMywxMzAuMDE2MjUzMzU3MTMyMjZMNzEuNDM0NDkyMTg3NSwxMTkuMzcxNzM4OTMzMDI2NzZMNzUuOTAxOTQwMTA0MTY2NjcsMTIxLjM5ODQ0MjE0MTcxMTdMODAuMzY5Mzg4MDIwODMzMzQsMTI1Ljc0MDY1NTQxNDc2MDA4TDg0LjgzNjgzNTkzNzUsOTQuMTM4NzA1MTk4OTYzNDZMODkuMzA0MjgzODU0MTY2NjcsMTIzLjYxNjY3NTg3MzU5NzQ2TDkzLjc3MTczMTc3MDgzMzMzLDEwNy4wMTg3MDcwMzY5NzIwM0w5OC4yMzkxNzk2ODc1LDEyMS4xOTU0Mjc0Nzk4NDMyN0wxMDIuNzA2NjI3NjA0MTY2NjcsMTEzLjM2NDU0NTM0NTMwNjM4TDEwNy4xNzQwNzU1MjA4MzMzMywxMTkuMjkwNzA4OTAxOTgxNDlMMTExLjY0MTUyMzQzNzUsMTEwLjc2MTkxMzQ5ODI0MjY4TDExNi4xMDg5NzEzNTQxNjY2NiwxMzAuODM1MDUyMjk2NTE5MjVMMTIwLjU3NjQxOTI3MDgzMzMzLDEzMy42NzY3ODEzNDY0MDA1NkwxMjUuMDQzODY3MTg3NTAwMDEsMTQ2LjM4ODM4NTc4MjYzOTE4TDEyOS41MTEzMTUxMDQxNjY2NywxNTEuNDQ3NDE0NDQ3ODYzODhMMTMzLjk3ODc2MzAyMDgzMzMzLDEzMy45ODU4ODIzNDE4NjE3TDEzOC40NDYyMTA5Mzc0OTk5OCwxMzkuODQ5NDc4NDA2MjEwNzJMMTQyLjkxMzY1ODg1NDE2NjY3LDE1Ni4zMDk5NDg5NTEwMDU5NEwxNDcuMzgxMTA2NzcwODMzMzMsMTQ1LjQ4NDEyNDMzNzYzMzQzTDE1MS44NDg1NTQ2ODc1LDE1NS45MDUzNDgyNzYwOTg1NUwxNTYuMzE2MDAyNjA0MTY2NjcsMTUzLjU5ODQ0NjczNjczMzFMMTYwLjc4MzQ1MDUyMDgzMzMzLDEzNy42NDY5MDQ4NjM0MTcxMkwxNjUuMjUwODk4NDM3NSwxMjYuMzc3ODg3NzQwNzMxMjNMMTY5LjcxODM0NjM1NDE2NjY3LDE2MC4xOTEwNzQ5NzIzNTEzN0wxNzQuMTg1Nzk0MjcwODMzMzYsMTQ5Ljk5NTU3NzU0ODk0MDk2TDE3OC42NTMyNDIxODc0OTk5OCwxNTcuOTIwMjAxMDI1OTAzMjJMMTgzLjEyMDY5MDEwNDE2NjY3LDE2OC45NjIzMTk0MDg4NTM4M0wxODcuNTg4MTM4MDIwODMzMzMsMTQ3LjMwNzc5NDU2ODQzOTNMMTkyLjA1NTU4NTkzNzUsMTMwLjM5NDgyNjk4MDkyODU3TDE5Ni41MjMwMzM4NTQxNjY2NywxNjAuNDczODE5MjI4NTEwMDVMMjAwLjk5MDQ4MTc3MDgzMzMzLDE2MS4wMTQ3NDU5NzA1NjcwNUwyMDUuNDU3OTI5Njg3NDk5OTgsMTUxLjY2NDI5NDMyOTc4MjNMMjA5LjkyNTM3NzYwNDE2NjY3LDE2MC41NDI3NDIzNzY1MjYxOEwyMTQuMzkyODI1NTIwODMzMzMsMTU5LjM5NTUzNzM2NjQ2OTY4TDIxOC44NjAyNzM0Mzc1LDE2MS4xNDI5Mzk3Mjg5OTUxNUwyMjMuMzI3NzIxMzU0MTY2NjcsMTU5LjI3OTcyNTIzMTIzMDIzTDIyNy43OTUxNjkyNzA4MzMzMywxNjMuNjU3OTY2MDk3MTk1OTJMMjMyLjI2MjYxNzE4NzUsMTY1Ljk1MDMyNDcyNDExNzlMMjM2LjczMDA2NTEwNDE2NjY3LDE1NS4zNTEwMzI1MzAyNjgwMUwyNDEuMTk3NTEzMDIwODMzMzYsMTU2LjIxODYwNzAwNTk3MzY0TDI0NS42NjQ5NjA5Mzc0OTk5OCwxNjUuNjQyMzk1OTUzMzM3MzQiIHN0cm9rZS13aWR0aD0iMnB4IiBzdHJva2U9InJnYigwLCAxMTksIDE4NykiLz48L2c+PC9nPjwvZz48L2c+PC9nPjwvZz48ZyBjbGlwLXBhdGg9InVybCgjY2xpcF8xKSIgdHJhbnNmb3JtPSJ0cmFuc2xhdGUoNjEsIDE3NykiPjxjbGlwUGF0aCBpZD0iY2xpcF8xIj48cmVjdCBoZWlnaHQ9IjIyIiB3aWR0aD0iMjY4Ii8+PC9jbGlwUGF0aD48Zz48Zz48bGluZSBzdHJva2Utd2lkdGg9IjFweCIgc3Ryb2tlPSJyZ2IoMjA0LCAyMDQsIDIwNCkiIGZpbGw9InJnYigwLCAwLCAwKSIgc3R5bGU9InZpc2liaWxpdHk6IGluaGVyaXQ7IiB5Mj0iNSIgeDI9IjAiIHkxPSIwIiB4MT0iMCIvPjxsaW5lIHN0cm9rZS13aWR0aD0iMXB4IiBzdHJva2U9InJnYigyMDQsIDIwNCwgMjA0KSIgZmlsbD0icmdiKDAsIDAsIDApIiBzdHlsZT0idmlzaWJpbGl0eTogaW5oZXJpdDsiIHkyPSI1IiB4Mj0iMjIuMzM3MjM5NTgzMzMzMzMyIiB5MT0iMCIgeDE9IjIyLjMzNzIzOTU4MzMzMzMzMiIvPjxsaW5lIHN0cm9rZS13aWR0aD0iMXB4IiBzdHJva2U9InJnYigyMDQsIDIwNCwgMjA0KSIgZmlsbD0icmdiKDAsIDAsIDApIiBzdHlsZT0idmlzaWJpbGl0eTogaW5oZXJpdDsiIHkyPSI1IiB4Mj0iNDQuNjc0NDc5MTY2NjY2NjY0IiB5MT0iMCIgeDE9IjQ0LjY3NDQ3OTE2NjY2NjY2NCIvPjxsaW5lIHN0cm9rZS13aWR0aD0iMXB4IiBzdHJva2U9InJnYigyMDQsIDIwNCwgMjA0KSIgZmlsbD0icmdiKDAsIDAsIDApIiBzdHlsZT0idmlzaWJpbGl0eTogaW5oZXJpdDsiIHkyPSI1IiB4Mj0iNjcuMDExNzE4NzUiIHkxPSIwIiB4MT0iNjcuMDExNzE4NzUiLz48bGluZSBzdHJva2Utd2lkdGg9IjFweCIgc3Ryb2tlPSJyZ2IoMjA0LCAyMDQsIDIwNCkiIGZpbGw9InJnYigwLCAwLCAwKSIgc3R5bGU9InZpc2liaWxpdHk6IGluaGVyaXQ7IiB5Mj0iNSIgeDI9Ijg5LjM0ODk1ODMzMzMzMzMzIiB5MT0iMCIgeDE9Ijg5LjM0ODk1ODMzMzMzMzMzIi8+PGxpbmUgc3Ryb2tlLXdpZHRoPSIxcHgiIHN0cm9rZT0icmdiKDIwNCwgMjA0LCAyMDQpIiBmaWxsPSJyZ2IoMCwgMCwgMCkiIHN0eWxlPSJ2aXNpYmlsaXR5OiBpbmhlcml0OyIgeTI9IjUiIHgyPSIxMTEuNjg2MTk3OTE2NjY2NjciIHkxPSIwIiB4MT0iMTExLjY4NjE5NzkxNjY2NjY3Ii8+PGxpbmUgc3Ryb2tlLXdpZHRoPSIxcHgiIHN0cm9rZT0icmdiKDIwNCwgMjA0LCAyMDQpIiBmaWxsPSJyZ2IoMCwgMCwgMCkiIHN0eWxlPSJ2aXNpYmlsaXR5OiBpbmhlcml0OyIgeTI9IjUiIHgyPSIxMzQuMDIzNDM3NSIgeTE9IjAiIHgxPSIxMzQuMDIzNDM3NSIvPjxsaW5lIHN0cm9rZS13aWR0aD0iMXB4IiBzdHJva2U9InJnYigyMDQsIDIwNCwgMjA0KSIgZmlsbD0icmdiKDAsIDAsIDApIiBzdHlsZT0idmlzaWJpbGl0eTogaW5oZXJpdDsiIHkyPSI1IiB4Mj0iMTU2LjM2MDY3NzA4MzMzMzM0IiB5MT0iMCIgeDE9IjE1Ni4zNjA2NzcwODMzMzMzNCIvPjxsaW5lIHN0cm9rZS13aWR0aD0iMXB4IiBzdHJva2U9InJnYigyMDQsIDIwNCwgMjA0KSIgZmlsbD0icmdiKDAsIDAsIDApIiBzdHlsZT0idmlzaWJpbGl0eTogaW5oZXJpdDsiIHkyPSI1IiB4Mj0iMTc4LjY5NzkxNjY2NjY2NjY2IiB5MT0iMCIgeDE9IjE3OC42OTc5MTY2NjY2NjY2NiIvPjxsaW5lIHN0cm9rZS13aWR0aD0iMXB4IiBzdHJva2U9InJnYigyMDQsIDIwNCwgMjA0KSIgZmlsbD0icmdiKDAsIDAsIDApIiBzdHlsZT0idmlzaWJpbGl0eTogaW5oZXJpdDsiIHkyPSI1IiB4Mj0iMjAxLjAzNTE1NjI1IiB5MT0iMCIgeDE9IjIwMS4wMzUxNTYyNSIvPjxsaW5lIHN0cm9rZS13aWR0aD0iMXB4IiBzdHJva2U9InJnYigyMDQsIDIwNCwgMjA0KSIgZmlsbD0icmdiKDAsIDAsIDApIiBzdHlsZT0idmlzaWJpbGl0eTogaW5oZXJpdDsiIHkyPSI1IiB4Mj0iMjIzLjM3MjM5NTgzMzMzMzM0IiB5MT0iMCIgeDE9IjIyMy4zNzIzOTU4MzMzMzMzNCIvPjxsaW5lIHN0cm9rZS13aWR0aD0iMXB4IiBzdHJva2U9InJnYigyMDQsIDIwNCwgMjA0KSIgZmlsbD0icmdiKDAsIDAsIDApIiBzdHlsZT0idmlzaWJpbGl0eTogaW5oZXJpdDsiIHkyPSI1IiB4Mj0iMjQ1LjcwOTYzNTQxNjY2NjY2IiB5MT0iMCIgeDE9IjI0NS43MDk2MzU0MTY2NjY2NiIvPjxsaW5lIHN0cm9rZS13aWR0aD0iMXB4IiBzdHJva2U9InJnYigyMDQsIDIwNCwgMjA0KSIgZmlsbD0icmdiKDAsIDAsIDApIiBzdHlsZT0idmlzaWJpbGl0eTogaW5oZXJpdDsiIHkyPSI1IiB4Mj0iMjY4LjA0Njg3NSIgeTE9IjAiIHgxPSIyNjguMDQ2ODc1Ii8+PC9nPjxnIHRyYW5zZm9ybT0idHJhbnNsYXRlKDAsIDgpIj48dGV4dCBzdHJva2Utd2lkdGg9IjFweCIgc3Ryb2tlPSJub25lIiBmaWxsPSJyZ2IoMzMsIDMzLCAzMykiIHN0eWxlPSJ0ZXh0LWFuY2hvcjogbWlkZGxlOyB2aXNpYmlsaXR5OiBoaWRkZW47IGZvbnQtZmFtaWx5OiBSb2JvdG8sIHNhbnMtc2VyaWY7IGZvbnQtc2l6ZTogMTJweDsgZm9udC13ZWlnaHQ6IDIwMDsiIGR5PSIwLjk1ZW0iIGR4PSIwZW0iIHk9IjAiIHg9IjAiPi01MDA8L3RleHQ+PHRleHQgc3Ryb2tlLXdpZHRoPSIxcHgiIHN0cm9rZT0ibm9uZSIgZmlsbD0icmdiKDMzLCAzMywgMzMpIiBzdHlsZT0idGV4dC1hbmNob3I6IG1pZGRsZTsgdmlzaWJpbGl0eTogaW5oZXJpdDsgZm9udC1mYW1pbHk6IFJvYm90bywgc2Fucy1zZXJpZjsgZm9udC1zaXplOiAxMnB4OyBmb250LXdlaWdodDogMjAwOyIgZHk9IjAuOTVlbSIgZHg9IjBlbSIgeT0iMCIgeD0iMjIuMzM3MjM5NTgzMzMzMzMyIj4wPC90ZXh0Pjx0ZXh0IHN0cm9rZS13aWR0aD0iMXB4IiBzdHJva2U9Im5vbmUiIGZpbGw9InJnYigzMywgMzMsIDMzKSIgc3R5bGU9InRleHQtYW5jaG9yOiBtaWRkbGU7IHZpc2liaWxpdHk6IGhpZGRlbjsgZm9udC1mYW1pbHk6IFJvYm90bywgc2Fucy1zZXJpZjsgZm9udC1zaXplOiAxMnB4OyBmb250LXdlaWdodDogMjAwOyIgZHk9IjAuOTVlbSIgZHg9IjBlbSIgeT0iMCIgeD0iNDQuNjc0NDc5MTY2NjY2NjY0Ij41MDA8L3RleHQ+PHRleHQgc3Ryb2tlLXdpZHRoPSIxcHgiIHN0cm9rZT0ibm9uZSIgZmlsbD0icmdiKDMzLCAzMywgMzMpIiBzdHlsZT0idGV4dC1hbmNob3I6IG1pZGRsZTsgdmlzaWJpbGl0eTogaW5oZXJpdDsgZm9udC1mYW1pbHk6IFJvYm90bywgc2Fucy1zZXJpZjsgZm9udC1zaXplOiAxMnB4OyBmb250LXdlaWdodDogMjAwOyIgZHk9IjAuOTVlbSIgZHg9IjBlbSIgeT0iMCIgeD0iNjcuMDExNzE4NzUiPjFrPC90ZXh0Pjx0ZXh0IHN0cm9rZS13aWR0aD0iMXB4IiBzdHJva2U9Im5vbmUiIGZpbGw9InJnYigzMywgMzMsIDMzKSIgc3R5bGU9InRleHQtYW5jaG9yOiBtaWRkbGU7IHZpc2liaWxpdHk6IGhpZGRlbjsgZm9udC1mYW1pbHk6IFJvYm90bywgc2Fucy1zZXJpZjsgZm9udC1zaXplOiAxMnB4OyBmb250LXdlaWdodDogMjAwOyIgZHk9IjAuOTVlbSIgZHg9IjBlbSIgeT0iMCIgeD0iODkuMzQ4OTU4MzMzMzMzMzMiPjEuNWs8L3RleHQ+PHRleHQgc3Ryb2tlLXdpZHRoPSIxcHgiIHN0cm9rZT0ibm9uZSIgZmlsbD0icmdiKDMzLCAzMywgMzMpIiBzdHlsZT0idGV4dC1hbmNob3I6IG1pZGRsZTsgdmlzaWJpbGl0eTogaW5oZXJpdDsgZm9udC1mYW1pbHk6IFJvYm90bywgc2Fucy1zZXJpZjsgZm9udC1zaXplOiAxMnB4OyBmb250LXdlaWdodDogMjAwOyIgZHk9IjAuOTVlbSIgZHg9IjBlbSIgeT0iMCIgeD0iMTExLjY4NjE5NzkxNjY2NjY3Ij4yazwvdGV4dD48dGV4dCBzdHJva2Utd2lkdGg9IjFweCIgc3Ryb2tlPSJub25lIiBmaWxsPSJyZ2IoMzMsIDMzLCAzMykiIHN0eWxlPSJ0ZXh0LWFuY2hvcjogbWlkZGxlOyB2aXNpYmlsaXR5OiBoaWRkZW47IGZvbnQtZmFtaWx5OiBSb2JvdG8sIHNhbnMtc2VyaWY7IGZvbnQtc2l6ZTogMTJweDsgZm9udC13ZWlnaHQ6IDIwMDsiIGR5PSIwLjk1ZW0iIGR4PSIwZW0iIHk9IjAiIHg9IjEzNC4wMjM0Mzc1Ij4yLjVrPC90ZXh0Pjx0ZXh0IHN0cm9rZS13aWR0aD0iMXB4IiBzdHJva2U9Im5vbmUiIGZpbGw9InJnYigzMywgMzMsIDMzKSIgc3R5bGU9InRleHQtYW5jaG9yOiBtaWRkbGU7IHZpc2liaWxpdHk6IGluaGVyaXQ7IGZvbnQtZmFtaWx5OiBSb2JvdG8sIHNhbnMtc2VyaWY7IGZvbnQtc2l6ZTogMTJweDsgZm9udC13ZWlnaHQ6IDIwMDsiIGR5PSIwLjk1ZW0iIGR4PSIwZW0iIHk9IjAiIHg9IjE1Ni4zNjA2NzcwODMzMzMzNCI+M2s8L3RleHQ+PHRleHQgc3Ryb2tlLXdpZHRoPSIxcHgiIHN0cm9rZT0ibm9uZSIgZmlsbD0icmdiKDMzLCAzMywgMzMpIiBzdHlsZT0idGV4dC1hbmNob3I6IG1pZGRsZTsgdmlzaWJpbGl0eTogaGlkZGVuOyBmb250LWZhbWlseTogUm9ib3RvLCBzYW5zLXNlcmlmOyBmb250LXNpemU6IDEycHg7IGZvbnQtd2VpZ2h0OiAyMDA7IiBkeT0iMC45NWVtIiBkeD0iMGVtIiB5PSIwIiB4PSIxNzguNjk3OTE2NjY2NjY2NjYiPjMuNWs8L3RleHQ+PHRleHQgc3Ryb2tlLXdpZHRoPSIxcHgiIHN0cm9rZT0ibm9uZSIgZmlsbD0icmdiKDMzLCAzMywgMzMpIiBzdHlsZT0idGV4dC1hbmNob3I6IG1pZGRsZTsgdmlzaWJpbGl0eTogaW5oZXJpdDsgZm9udC1mYW1pbHk6IFJvYm90bywgc2Fucy1zZXJpZjsgZm9udC1zaXplOiAxMnB4OyBmb250LXdlaWdodDogMjAwOyIgZHk9IjAuOTVlbSIgZHg9IjBlbSIgeT0iMCIgeD0iMjAxLjAzNTE1NjI1Ij40azwvdGV4dD48dGV4dCBzdHJva2Utd2lkdGg9IjFweCIgc3Ryb2tlPSJub25lIiBmaWxsPSJyZ2IoMzMsIDMzLCAzMykiIHN0eWxlPSJ0ZXh0LWFuY2hvcjogbWlkZGxlOyB2aXNpYmlsaXR5OiBoaWRkZW47IGZvbnQtZmFtaWx5OiBSb2JvdG8sIHNhbnMtc2VyaWY7IGZvbnQtc2l6ZTogMTJweDsgZm9udC13ZWlnaHQ6IDIwMDsiIGR5PSIwLjk1ZW0iIGR4PSIwZW0iIHk9IjAiIHg9IjIyMy4zNzIzOTU4MzMzMzMzNCI+NC41azwvdGV4dD48dGV4dCBzdHJva2Utd2lkdGg9IjFweCIgc3Ryb2tlPSJub25lIiBmaWxsPSJyZ2IoMzMsIDMzLCAzMykiIHN0eWxlPSJ0ZXh0LWFuY2hvcjogbWlkZGxlOyB2aXNpYmlsaXR5OiBpbmhlcml0OyBmb250LWZhbWlseTogUm9ib3RvLCBzYW5zLXNlcmlmOyBmb250LXNpemU6IDEycHg7IGZvbnQtd2VpZ2h0OiAyMDA7IiBkeT0iMC45NWVtIiBkeD0iMGVtIiB5PSIwIiB4PSIyNDUuNzA5NjM1NDE2NjY2NjYiPjVrPC90ZXh0Pjx0ZXh0IHN0cm9rZS13aWR0aD0iMXB4IiBzdHJva2U9Im5vbmUiIGZpbGw9InJnYigzMywgMzMsIDMzKSIgc3R5bGU9InRleHQtYW5jaG9yOiBtaWRkbGU7IHZpc2liaWxpdHk6IGhpZGRlbjsgZm9udC1mYW1pbHk6IFJvYm90bywgc2Fucy1zZXJpZjsgZm9udC1zaXplOiAxMnB4OyBmb250LXdlaWdodDogMjAwOyIgZHk9IjAuOTVlbSIgZHg9IjBlbSIgeT0iMCIgeD0iMjY4LjA0Njg3NSI+NS41azwvdGV4dD48L2c+PGxpbmUgc3Ryb2tlLXdpZHRoPSIxcHgiIHN0cm9rZT0icmdiKDIwNCwgMjA0LCAyMDQpIiBmaWxsPSJyZ2IoMCwgMCwgMCkiIHkyPSIwIiB4Mj0iMjY4LjA0Njg3NSIgeTE9IjAiIHgxPSIwIi8+PC9nPjwvZz48L2c+PC9nPjwvc3ZnPg==;" vertex="1" parent="1">
          <mxGeometry x="120" y="520" width="585" height="354.55" as="geometry" />
        </mxCell>
        <mxCell id="9cUfWUzaJqITgVBhfXAm-7" value="" style="shape=image;verticalLabelPosition=bottom;labelBackgroundColor=default;verticalAlign=top;aspect=fixed;imageAspect=0;image=data:image/png,iVBORw0KGgoAAAANSUhEUgAAAlgAAACcCAYAAACjgNVXAAAAAXNSR0IArs4c6QAAAARnQU1BAACxjwv8YQUAAAAJcEhZcwAADsMAAA7DAcdvqGQAAFoUSURBVHhe7d13tG1XVfjx9x8WRBRFEcUhNsCIJME/IPpz6PjxgxhNwBBiYjKSICEJIYHEVNIxhfTeK0lMIb333nsPKEUQFVSKCAKCun9+NmNe11tvnXbPOfe9l8w7xnecs9dae5U555prrrX3vXfZ97///e573/te993vfrf7zne+0337299OkiRJkiRJpmCZwOpb3/pW941vfKP7+te/3n3ta1/rvvrVryZJkiRJkiSLZNk3v/nNzo/TqyOOOKJ7xzve0a299tpJkiRJkiTJIlkmyhJcbbbZZs0CSZIkSZIkyWQs+/KXv9yfXLUykyRJkiRJkslZ9sUvfjEfCyZJkiRJksyQZX/7t3/bzEiSJEmSJEkWx7LPfOYz3VprrZUkSZIkSZLMiGWf+tSnujXXXDNJkiRJkiSZEcuuvvrq7vWvf32SJEmSJEkyI/IdrCRJkiRJkhmTAVaSJEmSJMmMyQArSZIkSZJkxmSAlSRJkiRJMmMywEqSJEmSJJkxGWAlSZIkSZLMmAywkiRJkiRJZkwGWEmSJEmSJDMmA6wkSZIkSZIZkwFWkiRJkiTJjMkAK0mSJEmSZMZkgJUkSZIkSTJjMsBKkiRJkiSZMRlgJUmSJEmSzJgMsJIkSZIkSWZMBlhJkiRJkiQzJgOsJEmSJEmSGZMBVpIsIR/60Ie6ffbZp9t8882b+Yth3XXX7fbcc89ur7326jbaaKNmmaUi+gLfW2WSJEmCefjEVYWJA6w111yze+UrX9m9+tWvbuYP401velP38pe/vHvJS16ywEtf+tJujTXWWKFMnV4T5aIflPT00093f/M3f9Odeuqp/f3qf93rXtdddtllffrtt9/el1Vv5Ld47Wtfu9DOqLJYjCyS6fnd3/3d7q/+6q+6v/u7v+v+/d//vfv617/ePfDAA90HP/jBZvlVgc9+9rOdnyuvvLKZvxg4J+P/3ve+151++unNMsN4//vf3z322GP9HLnxxhuXy3vXu97V3XfffX3enXfe2a2//vrL5ddEX+B7q8yqzOpoU+PCL9LjMJQ5++yze1v68pe/3G277bbNupIXN+V6W8JX7LLLLs17BjELn7iq2uySBVgRqJTBC1wLUiI9Aie84hWv6K/L8mWZMrgJx+6HkC0Myujrgw8+2KdTpLKD+gIBWVnvsLLJysNC+NBDD3X//d//3eu2/Pm3f/u37uCDD27et5TcddddvU0+99xzC2mrYoCFxx9/vO/XP/3TPy3noA499NDu29/+di/nq666arl7WqzOAda4NnXxxRf34/v85z/fve9971uhnlUVNjfqR5kLLrig+6//+q/un//5n7sddtihWVfy4qZcb+uf7373u90ZZ5zRvK/FpD6xNf9WVZtdsgBLefe5f1heBE+vetWr+jQBT11emjzlWgEWB2m3LSgSHNmB+hknwII61a0vGWCtmhx77LH9RDaprr/++n5x3Hnnnbt/+Zd/6XUtYGjdt5RYrP2E3WFVDbDOOeec7vvf/373H//xH90JJ5ywkC6oMp++9a1vdfvvv/9y97RYnQOscW0qApU6GF3V8QiGTnDJJZf09kJPp5xyykJ6PKaxcK3sx83JqgtbCZ/DllybPwIcP4Ifhxyte2sm9YmD5t+qaLPLnnzyyeUCFfgej78QwYa8aQKssp5BRIClvKCm1c5rXvOaPsgq+x0Kjx+OksKVcWzppwywLCL/+q//2qf7+cY3vtE/GpD/Z3/2Z90//MM/9MbDqX7nO9/py3zzm9/sLrzwwt54LDr41Kc+taBUDvmKK65YKC9fAJu7wNljURAM1AEBnV933XXdWWed1V/H5H3qqad6/flxz9VXX90fcYce6bvU01FHHdV95Stf6fP8lPYBurYIl7r+whe+0Nth2W78RMAxqD8eY0fdFvWwMT/aKPO33HLL7plnnlno+9///d/3ZaYJsIz9q1/9at+ekzdpxhj9ZeeuW+MmJ/JyT8zDGK/+6FfpDFuB5yGHHNI75xgzeXtcFflLwTg2FX2Pn1Lmw8YQcpD2j//4jwu6Y4MrY1GI/oSeWnmhs1jQ9JuNl303j8jLj7rKk4tRdpysvsQ8L+0f11xzTa/rcr6PsoPwMRFgqTvszI82HJKYJ4PmX2mz5iF/7id82U477dT7N3XaNC7VWr1MI05oBB0SBCzlSVMEVJG22AArHr2hdSoVlAFWBFFlUOa7vDe+8Y3NAIuQKdMPxf3+7/9+f5oV18oeffTR/WMPO1XvWoTD4/y8KPye97ynT/OjPoJX3o97LIxxj2tHlur16RoUHAvoX//1X48dzSfjYfJ6FOyHgzfx6K4uF5O31olrk0vaf/7nf/ZpMRkPOOCA3hbo1zs4Jq3v2okF0yRt6TreAfC+39e+9rU+zemPxch7C4P6Y/Kb3IIn6X7k+a5s2TZnoz/6LT+cRDibGPukhPMyJ9jr7rvv3stB+5deemlfJmxcW5/73Of64MqP+aDvMQ9j4a4X67KdmI9eiG/JWxpdRP/mzTg2ZWGIMjZx5jaHPmoMIQc/pV6VCbtbSqI/oadWXugsAqx6bAgbVI8f352CjWPHyepLud6GzxG0OLDxM4kdhE9kZ2V5voWP0Ub4oEHzr7ZZc8pP+LLIj5P4pVqrl+2xxx4LwVM8DqsDINcRhC02wIITqfJkDNF2lCkDrPhe9sd39ZTlpIfCKc7z2FgYKMRi5ycc+t57792X8WIcYUZ0SwEnnXRS9/a3v7370pe+1N9D6cZOQRyKHerGG2/cvx9mV+/HgseYwjDuueeevh3OWT8EZ95liTEks4HOv/jFL/Z68ePTpDzuuOMWysTkfeSRR/rrOKUQlBx55JF9mjw/YR8xOe2i7Jo4DgGSn09+8pMLutbezTff3N+z66679gEVm4uAuw4kEP256aab+ut4xylOXGPis5tY3NmTH6denEcscNG2cRhP6ewWQzgh8+hjH/tYd9555/ULaNmX+oQw+h8LdczDuK4dn3tquYS8I0gj75hbIaelYhybioCjHNOoMZSyjaAx9KqeeJdkqSj7Y8ytvBhfjNej0g984AN9X+X5ue222/p7zjzzzOXqG2XHZXvJ6kfMczo2Xz7zmc/0ujZfpMX7muPYQfjECLCs2e538iVfOT/8huvW/Kttlp/iUyOgMgf9aGvrrbdesrV6mWCi9X5RBFIRCM0iwCpxfxloRR/qwMlnfNe2d7P0oxVgEabF8+STT144YRA41Quo+5UXrXp5VfRqIXHvQQcd1Cs5HAhlG/vxxx+/nALVE4YRO131MDCLHeMLA3QfA3BPMnsOPPDAfhLGSU5rdxSTMxxDLATS6gW/vgflpBaYu7/Wa31fXW9ZRn2uoz9RV7wvyB6jnxyFH/fW5Vt1RFuTwu7jZNb8CccmqIwyAgePSpXTJoekvO/6EX2Ja/3Rr3Le1HL59Kc/3V/TW9zru59SB0vJMJtqOfhRYwg5hFzcE2n8Riw+S0WrP3VejK813tqO6/pG2XHZXrL6EfO8/mHzsfnCOHZQ25Lf2H3iiSf6gEf52he07LG22dgEW38Fedrw3SnYUq7Vy9785jf3AUcklIGPAEYgM6sTrBYRKEX9deCk7eiHfAGWPtTlnEoRGmUIkuSH0wuFirKVPfHEExd2/H493UkAZYZwKYii/IwbYIXB1UqDd7206Z5kNtQnKRAgOBL2E0FBqSPXoSfEwiLPTz3h4x6Uk3qeAVbcUzqkwG8j1uVbdURbiyF2l47mndaGg4r82LgIrLzbeMcddywEFfoRfYlr/annzSB5Rz0lS/n4bFybajn4UWMIObgmF/dE2gsxwBplx2V7yepHzHM6p3t/miHecSrn7Dh2UNoS+/IIUD1e9bnhhhv6V3T8qEv5lj3WNistTq3MW+t7nKJF35dire4fEcaFYEZgVT6Si/RpAiz3ub+uNyjbrQOnuJbnlGvQSdduu+3Wn0aFwqUJiiK48uPvdEiPqDquHXs7/o57KYii/IwbYLUeEcIxZxx1JrMjJo9JHX93pXyURzfSSh25jsmFWFjCCcQ9cW2Ce4Ss3ni3QNAe9mGCxt+NKh0Mm2nVi+hPLEy1o2odqWvfewY+w1ZjNybfI6eyjmhrMXi5W5CgfmMxJo/QI7+WZ7Qd8qzlG46vrGfQI9l4vCbNo1mnSL4vFePaVMvBjxpDyIFc4hGhx2t+1LM6PCJs+b6w47q+UXYcbSWrJzHP6ZzupfGFfIZ1OOx+HDsoballl+Evwue07LG2WWnx+oLgTh/iF3WWcq3uX3KPC8FLBFJlIUHMNAFW3APf6/wygKsDJ/ju5CoeD0qry+244479TrBUOARTlO5HJOs+u1Rpgi/Ki4iZIrx3QkEU5WfcAMt17O7VRYHyLVac7lI70Bc68VKxH5PR6SSZkz0i8Kl1FI6hnMB1IHT44YcvPPqiu6iX/uN0w6lnpDntib449YnfRInfqFFGMM+plM6k7E/YLduKlzhjXAIqtnn55Zcv11+2pb5oO+pQZrGUzsdPvCcRxN/LMtf0w0vPfuLdhVq+3uXyPWTpvTZj8RPyFnDEGHySlU/z0+P+sv15Mq5NxftG5rrTLY8OR40hFoDIj5d31buUp3RB9Cf01MoLX7eYAGscO05WX2q/Ja38TeT4kybj2EFpS6W/sJm1Zoe/CF/Umn+1zSpncxynz8rGhhRLtVb3f6YhLuIkqXwnK9KmCbDgXnXUQVakDzqZQvShvLcs5/s222zTv4NVKhxxsuDn+eef7+vaYIMN+hMJwvVjkQjnaBdLQYsJsETH5a+w+7EQlb/en8wOk9yENVHih+w9top/01LrKBwDYmGpAyyYxGETftQbJ1NQv90Pm/DDlgRXcToBthd2FHZZOhNlWo5KWvlryj45Gn9xXb5P9UgHp6Cvte0vljiN8Xex/H2sMo8TLYMO44tdos1JLV9z4u67715wkpyYsfkp5V3/WQzl6WWp/4SBPo+yKSdUIX8/octhY4gFAGFXytlVL/UYEf0p50GdF75uMQGWNJ/D7DhZfaHb2m/BptLc4RNsVKPsMDuobcmf/lCvH/4iNnyCJUFTa/7VNhv9iVNpc658DL9Ua/UKf2g0gplAUPOGN7xhIQhabICFuLesPwK3KNMKsOogrC436OStJMqX43nnO9/Z/+p8q3wQbZd9rlGv+sv71Duq7mQ2mCx+i6+cWLNCncP0GG07+Wnlw/2L6ZuF16nKoAVYnfMY8zhM2rYx+LMPo/4/ITka88r+P4bj2JS8lm20xlAHIO4bZjMvJEbZcfLiYBI7MHfMv2F+YND8mxR1zKKeFvnPnpMkSeZM64QnSZIXNhlgJUmSzJkMsJLkxcdUAZbHc61HZiWjHt0lSZIkSZK80MgTrCRJkiRJkhmTAVaSJEmSJMmMyQArSZIkSZJkxmSAlSRJkiRJMmPmFmCt9ebf7l77ji26n9lk/+5lf35C96PbndPjuzR5yrTuTZIkSZIkWZ2ZS4D12nW37F629Sndj/xPQDUMZZRt1ZEkSZIkSbK6MvMA6+c22r0ZTA3DPa26kiRJkiRJVkdmGmAtJrgKMshKkiRJkuSFwswCLI/6WoHTJOTjwiRJkh/w53/+593ll1/e7bbbbs38JElWbWYSYHlZfZx3rkahjpX54rt/Qrn99tt3b3vb25r58+TMM8/sbrvttm699dZr5s+DHXbYoXvsscdm/h/EW+y0007dAw880D3//PPdc889191zzz3djjvu2Cw7LpPWedBBB/XjjfL+0/pmm222kL/OOut0e++9d3fdddd1d9111wr/jPfEE0/snnzyyf7+p59+upebe8oyW221Vf/f4B9//PHuvvvuW63+oe+s5Ylddtmlu+yyy7oHH3xwhbrc/8gjjyzcf9VVV3Xrr7/+cmWG3Y95yvviiy/unnrqqe7ggw9u5mOUTUyTb7wPPfTQ0PYnZeONN+7lRd6l3rbeeutm+WmgCzqhG//ou87Xl7vvvru3oWF2Nils6LjjjuvrpsMyrx4/2dNBWWYYw+zxYx/72HL2zJ+zz7JMC/POfbfccstCWt3PQf4mGNb2JZdc0qfXKDfJ2GvYpX6VdZa65Auuv/76hTHIO+qoo1aoZ7GwWeOM+o2fT5HX6lvA3uu65sVMAiy/EdgKmBaDulptLAUnn3zyzCf7OJhMFvQTTjihmT8vTFaGOI4TmAaB65133tkbtrGaGByvQGaQwxjFpHVus802/WJ16aWX9gG0/+puQnJakS+4MCnZQL1YWyCkn3HGGf39HNMTTzzRHXnkkQtlyNF9dHnggQf2/+19seNbamYtT/Vxfs8++2yfXs8rsiLvuJ+8lDn77LPHuj/qmJe8OWrBFXsYFOCMsolp84131gHWFVdc0T366KML/w/RhpIMyXrWm7sIsCxqF1xwwQr5hx12WPfMM880dbtYyC7mMP0JLsp812TqVJCt2Ngq2woAS0bZo8CLXC+88MJel+bP/fff38u7rKeGzG+88cZeRmWA5b6yn2zEeMisvB+Ladtao4x53MofB0Hdww8/3H30ox/tZYHygIIvICu+QZq57trGvq5rUsiNrzL3+QH1O+0V+A5az7Qrv/TZ82bZ5z73uWbGJPizC61gaTGoq9XGuFCmSQTfy7xDDz20O+CAA/pPu+XTTjutX0wiz46BEZ933nn9rkLescce2xts1LHvvvt2Rx99dK9g6fIpzsJAwRx96eQpXnntKdNSPgd677339vUxUo62PAnQl+OPP77bcMMN+2t1tNqL/uyxxx79LktfpRvHSSed1F1zzTX9Z4zZp7bU73pYWYwz3hb6Y2KZkJF26qmn9mnbbbfdcmXHZdI6TSp55VjJyATlPC0GFlW7X7ZjYSgDrLPOOqt3SFts8YMNgDFziHZoUSbuGzTBV2VmLU8ccsgh/Wdr49K6n/zGvT/Kz0PebF4/7rjjjr7dQQHOKJuYNt94ywCLbZp/FtlYxCYhAh56KtPVaZxsIOZ4Oe/5RvjOp/geftYiWusliPaM0WlSWaex3nDDDf0CjbKO8G98Jt9ZjlXbfDjfpO06KNx11137vqlD2/oYeeuuu24f6PF5kaZdYy/TWoyyRwGr/nqsG2lhn5tuummvO2Op5xJZ0zEZRYAVcitP39iIMtp2bZyHH354L8dRbUdaoC+33357M+idBH3RRuknS4wnxoS99tqrn/Nhz3S533779dflekx35557bnfllVcOXF+sj9YfPjvS1EMv7inLBmzKvC7tcFi8MAuWffazn21mTIK/bdUKlhaDulptjIMJJ0BiPPCd0iKfsqUxivgusGEgFOq7HZWdCsWZQPUOMgzXPdLVQanaozw7HJNGWYbCsTAqTs199aICO43YbQheOJzyNIvxxQ7TxFKHemMM+sQIoz9wOmARC0fjWsTvXtfSw7nEpHUtwlemLit/1HgH4T5jKsctjWxLJzUJk9ZpjOViFmmhy7JsqeNx0jgx6b6fc8453emnn97rTH9azmFVZJ7ylF4vSMPS6h1uq+w85c2PeDxqQdSuelvlRtnEtPnGG/7HomhOmp+1/xgXshHUqGPnnXdulmnpvFwo9Y8PUObmm2/ufQScXET5IHQkUFCmPH1xYiTtoosuWq49QYxTPP7FAkv+TngikAqfJ/3aa69tBhCItvW3lR9Y5NUlaGvlt2jZYw196St5kzubdk8ZNJEZXZxyyinLybhFyCtkqB711XMFddt1vjrUNerUbhTmiTVT/20W6mCI7MvA2pqmz9GuPnpEax1hS/ROHpA37voSOOXjw1oysYZZA51YRprYgC3deuutzXhhFiz79Kc/3a211lpT4Q+ItoKlxaCuVhujcJRKeYQcab5Lk+c6jO6tb31rf73//vv3Cj7mmGP6a7uiMFrXPk1+wZZrhAMUQUtX3q5f3h/+4R/2u17O3rX3eXx///vf31+/733v642HMUZ9H/zgB/v69CXS7GCjn3GPSa1+gVY5BouAyfLhD394hf7AM2/Hx/JdO062MJpkMemNW54gT1+23HLL/tqna+muR413EO4jx5DroLRJmLROYwy9DUtDqeNII39ypi/X5E8PUU6b5GyScgwmrGBdXaGrVZl5ylN6Oa+gbmml3dtR1+XQut/3eci7PMmLPvpslR1lE9PmGyP5CwIEE8qav9H+YlCn+r23Iogk2z/+4z9eyG/pnN+E7zE3wkdYLMnoiCOOWCgfGIOyFmLjQuhGGr/G95btCZbPP//8hXLqVb92XEdfyj63iLb1t85797vf3aezGf5fkB7tjUPLHgNBhkDYmAQfrTLQHr8ZYyllXCNfnfo7bNzjtM1nK6PtScbcggzZETmHTbHTqJeN6DNZef0g3neL+423tAlPaQRUPl1Lt97pb9xT8973vrd/8sQHeNcv1vIap/HWvViL3/nOd/b3OPiIMsYj0JMXadOy7JOf/GS35pprTsWsA6xWG6MQHYezijQGRrnyXBPeJz7xiYX8TTbZpDfESCsnTtzPCXA6cY+y7jGBpcuP8tAG4tqEsCukYIGVCLvsA2NifO95z3sW0jgV9RoL5yry9h36Z3KoD07epOlLqz8CK22K0gVVnEvkhXyMO2RhRxn5iPHKH2e8LVr3tdImYdI6jTH0NiwNpY4jjbOQRld2QeTJGXAgHj385V/+Zb/Y03HcY7Fgk3QQaasq85Sn9HJewbxwMqF+8vSuF/mx9ff9z6Zi1P3zkLc+sWWO9i1veUs//phbrfKjbGLafOO1WMrXD49YWv2YFGPzqM/iRoawMMlr6byc4+ZGOd+VCx8SaQE7MD738GP8kM0uX2dxE2S12iMXpxb8m3stzKEDbUuLsoMo267zyNbGUyBHvuSuzbrcIFr2GLA9G3u2bcGPtadGAG/cnki4LmVcQlfGQHaC6zq/ZJy2bWjU5bPOmxQyFuDEtfnnFMojS9fWPXJyEvnxj3+8Hy+bM8/k17pszbdBcgnYknF6v8u91saovywT9lamW+vIiR186EMf6mVd5s+CZaK/17/+9VPxo1se2/3QNmfNBHW12hiF3xqxI3McGWlxTCzPNcPzImDkEwDlRZpyHLQX/1z7FPUyxrhHWceensVLlx/loQ347vGJPinPgTp+ZGTR3h/8wR/07TtijfshmHGP0ynO3vtQ+qodk4MDtiAFjIqBtPoD/YgdoxdARe3ea1DOeI3beLTJWMt7OblxxzsI91k4P/CBDyyX1urruExaZ8s+pMXYyrKljst0enE0T+Z2YvQS88fJB2etD1HeoxwyL9NWVeYpT+nlvAo22GCD/r0I8vTJRtn2H/3RHy1XrnX/POQdJ0qCNvplBxYMn9pr3TPMJqbNN1790QcLgX7wA3HvLKAD/oDu+YmWzss5rg/lfI8+0lGkBeFT3KMdp902hE5a6ElAILArdesRobGSB7/oXtehU21LK9tpUbbdyg+caOiLjW4rv8Uge64x1kF+RLpgg87hGuRBVlFWnsDBi+RlHaNotc126NqaY+0py8+C0hbMYXPZ+hX5ZM3OHCC4rnVJx+4v529pe6OwAYngsUxnU2FvZfrv/M7v9MEcecTjSe+ElWWmZSa/RbgqvOTufSOGyBFGmu/S5Ll2JEnhke+FTkLl2F1zsMrHs/XyHYi4x/2CNsHbqPcV1Kd+7biu3wuwi5TfeqdCGcejnF08g/aCJAO0ANTl0eqPNsvfrtImh2XiKme8+ukdh3jcF/fCtXT5o8Y7CHrQb7u2SBO4lbKZlEnrHPRSdoytLFvquEwvsXs1mQWkrkM3FoUoYyEhX5+RtqoyT3nW86qFQM2C0HrxtnX/PORtUfI4InBy5ETJp/nSuqektolp843XGC268b6Ik6D6vnHxEi9/UuoYTrb5BHIbNcfNjXK+Kxc+JNKC2t/xW+wpXnPgk2rdqrv0Qfoj32fkR33DqNuGYMN1qcsoJ8iNtFG07NFCLTAuXzSPcvQaaXCKJ4AsbU05lHXw+x6D1/qqGbfteI8r1sNpcHpVv2TOF2hTv0OufEjkC+DZX6y3tS5rXUeZ0t4CYzXmsv2wxVK/fBF7Y1Pl+2EOGLwDxybiWhl9HvRe32J4wfyZhlAow+WswXClyVOGolxbMAjbqVLsjuRHkCYSdh1O3FGi8vErzVHnKGfE+atfUEOBnGS8JyLfYhKOJu4PvHTJoZYLnHKMwKSL33jwqQ67h1Z/jFH5GJO+xCQIgwznaDLobxit31JxPB+TZNR4B8GILVL04QXMePGerlpjH4dRdYJjir6Sj76Tvbz4ZYGY7CXKhI7rPO2SA71E29JDN+6jL+neRxhUz6rGPOXZWpACbbFJbXukE79QUdK6fynkTc/a9em6lkEwyCamzdcOGcvTNlmTMVmX94+Lep0qkFG85B5+UttkTxd28x6Dyfe4h/+IOa4P5XzXx9KHlNCDttzjOt7XcooeL2uXujVGdQvS9csi7n3U8k9lyI/6hlG3DfWz57AZaU5TjDf60wpWalr2aA2R5hGddvRfXy3uFnmyb/0WYaBsKVd2pl+DXrpmA/FbhKPajnvIwiZGflnXYtCOdUc76rO+lX+GIfI9mos5zaasJyFr95b6oWPjCF1HmVIugTbVzXZ91561zv3xEj2izvqXGPSJzQsS9T0CLHWaj2XZaXhB/aFROwNHkF62g+/SIp+iTC6GK9CxO/WCI+XIF0BxaP4mSShecKGcNAGPOtVhAlPesICDg/A9+uM+5SmSgi0oYWw1jMZkqP+WSTgd9XE8sKgZQ6s/Jrb2orxPDkR67RwZmWDSeAPX0uWPGu8wOAT3qjNkUdazGIbVaZIbW7kzjccPdK+8fpNn5Ad0Hzou042fDNXhaLt2VKW+2YvTCAtWWWZVZl7ybC1IcC3dvGKTreAKg+6ft7zDOft03ZLBKJuYJt946SPaJx86aQVp46KO8B9kBguNX8iRz48YX+Qb76wCrFh0y0W+1i39WaS1rQ+CBIvyoKcQg2gFWBBYCTLVzW7JvlwDoj/lyU9Nyx7dL4BgyzEfPEKPMi3bKTGuUq6+h35Kwi+pJ/o5qm0oR66CkEibFvVrR3tgw/G0JfJtnAbJutYlOzemsPcoU8qlpFzv+ay6/bC3OtAMBNNkEvdrOw4XZsVMAiysSv8qhwHWiyNCoQQfu966jGDCI7UIKqCcnUeZNgmt/lAkxQ9aVEYxaZ+UF0CO45hbMhgFuQ5zCFHOzrClm2mYpE66N7ZZ7lJq9GXYDnhVZ1WT5yhWd3mvDMzt8hFJjfTy1YKlZJh/nhWDxuepwjSnGCtzPqysts2/YbYyb1uadv67d17+Y2YBFlb1f/ZcR8xJkiRJAi+fe+F51DtPSTIuMw2wsJggaymCK3hHo/WOSJIkSZIkySyZeYAFj/rGeSdLmVk9FkySJEmSJFlVmEuABS+r+41Af3bBv7/xB0ThuzR507zQniRJkiRJsqoytwArSZIkSZLkxUoGWEmSJEmSJDMmA6wkSZIkSZIZkwFWkiRJkiTJjMkAK0mSJEmSZMZkgJUkSZIkSTJj5hZg/b+1f6vbee1f7Y5b+zXdBWu/qrts7Z/t8V2aPGVa9yZJkiRJkqzOzCXA2mPtX1kIqEahbKuOJEmSJEmS1ZWZBli/t/ab+tOpViA1DPe4t1VnkiRJkiTJ6sZMA6zFBFeBe1t1JkmSvBjxH/4vv/zybrfddmvmJ0myajNxgLXmmmt2r3zlK7tXv/rVy6UPeyx46Vo/012wxk90n3jTTzfzg5X9uHCjjTbqtt9+++5tb3tbM3+enHnmmd1tt93Wrbfees38ebDDDjt0jz322JL9A+xddtmlu+yyy7oHH3yw23HHHZtlJmGnnXbqHnjgge7555/vnnvuue6ee+4ZWu9BBx3UjzfK33TTTd1mm23W562zzjrdSSed1D355JML+fSx1VZbjXX/JZdc0qfXKHfiiScu1KG+q6++unv88ce7++67r9t8880X8lY2s5QnPvaxj3WPPPLIQr7xaiPyx2lvlM3MU54XX3xx99RTT3UHH3xwMx90Gzbz9NNP93OJLc0i33gfeuihoe1PysYbb9zLi7xD7vS29dZbN8tPA13QCd3svvuK/9BfX+6+++7ehobZ2aSsv/763XHHHdfXTYdlXj1+si/n5yjG9WGjbIeO6frZZ59d0P0555yzoHtjuOqqqxb6aR6Zb3U9LVpt13Ox9m2LYdT8hrX09NNP7x5++OGRc2lS2KxxjCMj6drnp1v582ImAZaX1VsBUzBugIWV+eL7ySefPPPJPg4m/V133dWdcMIJzfx5YTIz+Gkn2igEriYCZ2ISzELG6rzzzjv7xYH8TDYT/LrrrltuAQu22WabfrG69NJL+0m/55579n2J4PKwww7rne0pp5zS3y//0Ucf7a644oqx7m9Bn/fff39/r2ty1ke6PvDAA7ttt9222deVwazlaUGl5wsvvLDPj/piEzGqvXFsZp7yDIds4Ru0KMQYzzjjjH6MFuonnniiO/LII2eSb7yzDrDYM7veZ599+msbylIvdflpiADL4nfBBReskG/OPfPMM03dLhayozN1thZU12TqVJCt2Ngq2woASybxYePYztFHH93r+vDDD+/7wQbUuf/++/f5+qUd88r8EGwJ6sKXDKLVtqCQzsu5yC+Fb1sMo+a3MsZF3sqdeuqp/YZe4FjXtRi0wXeY+/yAPjjtJaN6PWOH9957b2+Hq2WA5TcCW8FSMEmApa6yvUlhkIQI38u8Qw89tDvggAP6TwZ72mmn9cYbeXY2jPO8887rI3F5xx57bG88Uce+++7bTw4Kli6f4Zx99tm9gjn60slTvPLaU6YVzJgIDEB9Ji1HW54E6Mvxxx/fbbjhhv21OlrtRX/22GOPfpelr9KNw+nMNddc03/GmH1qq9x1DCqLccbbgnM65JBD+s9ZBbHGyAHZRUWaSSxtu+22W64sOF555VjJyATVL/bCQWy66abL5d9yyy1j3R9pAUdy++23L7ewRBstG1jZzFqeoWe2EvnqM34Ob1R749jMvOTJ5o3jjjvu6NsdtEieddZZ/UK1xRZb9NfmAXu5/vrrZ5JvvGWAxabMP4EJvyJtEiLgoacyXZ3GSScxx8t5zzfCdz7F9/CzAupBcznaM0anSWWdxnrDDTf0Jxso6wj/xmfyneVYtc2H803aroPCXXfdte+bOrStj5G37rrr9vORz4s07Rp7mdZiHHvEINuhO2OJuWRsgpHwnWyAnGJM7i/1ZJ4JkujGtXFGcBZlBrUtmNaeR85RtuXvJmHU/HatfWXKOV5Cl/vtt19frlyP6e7cc8/trrzyyoHri/XR+nNQcWIV7bmnLEumAi9zqbQHDIsXZsEyu/aXv/zlywVMvr/kJS9ZQP6b3vSDl9BbAdaod68GBVgX/uZPdue/4ccXuGTNVy73LlbdD+1qP/Jf97rXLZcvCLErsLBBsERpUZ7zksYI4rvAhkFQqO92VAyf4moHhzBM90hXB6Vqj3Hb4cQkYCgci0XDZHFfvSjBTiJ2EwyWwylPs2IymngmljrUG2PQJ0YY/YFHLxbBcDSuRfzudS09nIvJoh3XDFGZuqz8UeMdh2HOaRL0hZxKWUqjr1bd2i0Xs0gLXZZlQdZkHnqZ9H6LIPnFzlgZZT0GcGROp/rbch4rg3nLE2QZdjxJe+qtbWae8uSQPa60IGpXva1ypS+o0yxc0+Ybb/gfC7Q5aX7W/mNcyEZQo46dd965WaalA34GvusfH6DMzTff3Ns4nIRF+SB05JGVMuZE5JkX0i666KLl2hPEhA+3wJL/jTfeuBBIhc+Tfu211w4MEKJt/W3lBxZ5dQnaWvktWvYYDLIdft11PLI0jjrQlaa/rb6XsnTtU31lgDOu3bIlbbGFWfqfcn671n/XZFwGUFFeH8Qf1hG2RO9sE/ImXV+cAvIppUycCLKzo446agWZ6g9buvXWW5vxwixYRigvfelLuzXWWKNPENSUgUwEVJHWCrDKv3PVog6w4lqAFWUEV4Ksc3/rpxf6MSywi+DKp2sT1kQV1cc9cewai1xtVCYVBYcC64lTOjjXoCCKYvDSlWdA8hiW3QNjch07hzjWtTtkPHauUR9jUF85we1go59xj0dXseiXYzjmmGN6A+J06/7AZLPzCacsQLMwkpPxKW/c8tiCvkRAFcFZBBmjxjsOw5zTJOhLvRC00gLtht6GpQUmmn7GrmaS+8nFYkguoSd9ogeTmOMwoQXz7GmWTm6xzFuedrHkKeh3PUl76q1txvd5yJO+zSc2rj/a9dkqa04qGw5du+ZmyGDafGMkD4GJYEJZ8zfaXwzqVL/3VizGZGvBjfyWDvhN+B7+L3yEU69SryXGoKyF37hKvxWnCnxv2Z5g+fzzz18op171a8d19KXsc4tou1xQA6dQ0tkM/1+++zQOLXvEJLZjDHXfIk1ffC/lxUbU3RoPxmnboQG/RN4OE+r+T0M9v2EM5qegRwAlv7SdeowOFQRUcbgg3Xqnz1FnjVM5T574AO/6lcEYG6FjrzHEWhbye9e73tXfUwa58vRTXqRNyzKGG8GTIEuwFUFL4DqCsFaAFUHSIOoAy6dr6WW5i974ij79jW984wpt1Lz2ta9dLgBzxMvhhrMCA6LUOP6tjdrupxR6PXF8MsbSUJV1jwksfZgzAiXblVmwHXvXk4QxUXQZ2TNS9RoL58oR+Q79Y1Dqg8eZ0vSl1R+BlTYZqqCKc4m8kI9xhyxihxTEeOWPM95RDHJOk9LqSyst0G7obVgaOAu7qXI3M8n9gmUyL4Nmx9acDRuINBuAMvhdmcxTnnHqypbCmU7Snnprm5mHPGNnzyHrp/7E3GqVD6dt/to0mWMWCJsOQfa0+cZrcZKvH3vvvXezH5NibB7NOBkiQ8TC1NJBOcfpsJzvyoUPibSAHRife8oTXb7OCbzHda32yMVL6uafewVBoQNtS4uygyjbrvPI1sZTkEe+5K7NutwgWvY4qe20xlGmhQ+ySfN0hYwExeykvAfjtm1eeLdLwCIYGfVYdFxa8zvWEwGO/knz3pv5aWPhupZBq9/KIK5r2JJxCJTca22M9vgDfaDblj1Y68iBHXz4wx9e6PssWfb2t7+9D1bqjAik4vHbsABr0hMsgVR5ehU4xTrzDS/v29Gnst2yb4hgUBllGX39yCJOf2Ly1wolUJMr0uqJ45NhlwpXlqIoTPowZ+TkSp+UN0nqAMtE1z6jj/sRjlfw5fQoonzt6B+Ha5IEXgxmvK3+QD8Yk7Y5cJOWEUZ9xh0G6Dl6ea8JPe54x6HlnBaDvoz7iAkt+5AWY4u0lrOIsuPc7x7ypVf6jXTvrnAu+hhp8R5SmbaymJc8w5bZaTg+TNKeemubmYc848TbpiUWd8GHz3ifscb4OHfjc4+5Gu9QTZtvvPqjD4KM2iZngQWKvdIFP9HSQTnH9aGc79FHOoq0IHyKe8qgqgy2LI6lbm0ujZU8+EX3zjrAKomToVj0x6Flj5PajnGUpyeRVvZXEMwWICCkl9bjssXYLT3Uc3UxDJrfNvLWqXI8/KHNQ6TV46Vj4yjnrzKI62HY0Mb91kN6ZdtkEmsvv0yW+uLdPocO0shLfvlO1yxY9uY3v3m5AEbgFEFVnBCNOsGa9B0swdWgAOsvf+XHF/pTBlGtYKsMAv2mhAlcnmDVx9e1QiMAE8G6rieOT0ZdKtz9YZjShzkj9alfO67rSc/45bd23MpQvEUsJpUXJBlBaxeDVn+0Wf52lTZj96Kc8epnGD+DjHvhOnbUo8Y7Di3ntBhiMS1foBQclvIuYQPKl7Lm4GJsrvUp9FMvZOPcj3i3JGwuCN2VjtwpDFnUL2WuDOYhTy+ier+hdr6YpL2WzcxDnjZB+hr4LUcbEp/j7Pb5HoFK+f7kNPnGa4xeA7BIWATKx/+T4jESf1LKHAIePoHcRs1xc6Oc78qFD4m0oPZ3/Bb98muxaax1q+7SB+mPfJ+RH/UNo24b8Wiw1GWUq0/uh9Gyx0ltxxjJIfyMjQrdDPLtbIJtlOtbMKptQYOTnfIl9xhDq75xGTa/ITCkrxhj/ZSk1mWt6yiDuA7i0WAZEIUtxphLmajD/GHb2nS/9wbjiY5gi070Tz+jzmnpHxHGRf1eU5k+LMCa9LcIh51g/dnPv2y5ICoQ6An46iArMFEcR3p+77dF7JgIlsDkKUPIrjlwSrdD4ljiV2MtGhS011579dfhxL2IqXz8SnPUOcoZcf7qF9RQICcZ74nIt4sIRxP3B6JxBlEuOMoxAjv3eDfIpzoG7T6NUfkYk74Yo6AtDDKcowVOf8NoRfd2j3GqNWq849ByTovBxOBAYnLHTip+zR8WkmiHfGJyyYuTqgiuB+3EglH3B/IF+uyvTA/dhf1pw3s1YUtl2ZXBrOWpjph/6irbwqj2yrItm1kKedYOv5ZBYCzKmKst+1lsvnbIWJ62yZqMybq8f1zUy0eSUbzkHn5S23TAP3g05bf05HuPlP+IOa4P5XzXx9KHlNCDttzj2uZDWX9CQFAnrdStMapbkK5fFnCLdPknB+RHfcOo24b62VfYjLQjjjiiH2/0pxWM1Izjw/S3tB2yd3ISv0Xou3Yj2LU2KB9rUaAfTl/4YWUinQ3wz8ZUlkfdtjpdO+lSnmzJUYBXbg4nwXjYDVm25jdiPdVP12zKmAfpsu53lEFcB8YQT3J8Ny5rnfvjneuS2h70mc37TURrcwRY6jQf6/sXS/+Se1x41NYKYARTwwKsSf8Ols+/+o2XN9/B+vWf+t/3qmoGBYCBUyxGwxg9r/abc+VfQaYoQqZkgY4ov3zBUQDFoZV/L0NwoZw0AY861UFhDEH5cqKVBsFB+K4vcJ/yFEnBXjSMiV3DaCzUpX4QTkd9HA8sasbQ6o+JoL0o7zOeU9fOkZEJJo03cC1d/qjxjsM4zmlcOBn90c+Qb9RrZ6adcmfqXTgBJN0rr9/kKU+/6LimdO7D7oc2LYD1I9+gtAd125Fa0FplVwazlCeZkV0tT4S9DWuvZJDNzFuexqDd0H9LBjFOcvA3gczbyJs233jJJ9qPILQVpI2LOsJ/hD4sNPF+Fz9ifJFvvLMKsNRtM1huQGrd0p85pG19CH8eJ8LaLhflQbQCLAisBJnqZrdkX64B0Z9hJzuD7LGEzpQJ3dW2E3Jm+/rgs37ZXt/105rjt+DKPPcO6mfdtvsEN9avmKutP+o7CerW77ChkrAF7RqTsUmvZV3rsu53lCntrcTaTjbGow1zqPUIFS17EEyztbhf23G4MCv6P9MQFxHAlO9kRdqwAAuT/CX3uK5/i3DLV7+0bzvagO/RhjbjsWUrGIy+vvvd7+4FGulBKJSCY9dblxFMeKQWQQWUs/Mo0yZBX+r+UCTnMSj6H8WkfVJeADmOY27JYBTkWk80MOqWLmaJXd64bdC9sS12lzLt/dDXYTvklc1SyhOTtNdiVZfnqoi5XT4iqZFOr7EYLiXD/POsGDQ+TxVmfYoxjGnXlkmYxVxdDPMe47Tz373z8h8r/KHRCFICQc4b3vCGPpgpg586wMKgd7HqACsQYMXfwCrfvUK0U/al/K1B6E+Zj0GnWxh395MkSZK8uNhkk036X9Ov31FLksUy03/2/Htrv2nkC+8t3OPeVp2zxDsa9TszSZIkSZIks2amAVYw7HFhzcr+B89JkiRJkiSzZqoAy2PC+hFd8Isv/aHuT1/1o/2jv/PX/N+X2f3NLCdWfvNwZf5j5yRJkiRJknkxlxOsJEmSJEmSFzMZYCVJkiRJksyYDLCSJEmSJElmTAZYSZIkSZIkMyYDrCRJkiRJkhmTAVaSJEmSJMmMmV+A9X//sFt7+/26tT92Ybf2aXd0a5/z4A/wXZo8ZVr3JkmSJEmSrMbMJ8Da6WP/G1CNQtlWHUmSJEmSJKspsw2w/s8f/OB0qhVIDcM97m3VmSRJkiRJspox2wBrMcFV4N5WnUmSJC9C/If/yy+/vNttt92a+UmSrNrMLsCa5LHgIFby48KNNtqo23777bu3ve1tzfx5cuaZZ3a33XZbt9566zXz58EOO+zQPfbYY0vyD7D9h/pHHnmke/7557vnnnuuu++++7qddtqpWXZc3P/AAw8s1HnPPfd0O+64Y7MsDjrooH68Uf6mm27qNttss4X8ddZZp9t777276667rrvrrru6zTfffLn7TzzxxO7JJ5/s73/66ad7ubkn8usx0udWW201dv7KZtbyxC677NJddtll3YMPPrhCXWQtPe6/8847lyuj/lJeV111Vbf++usv5M9bnhdffHH31FNPdQcffHAzH6NsYpp8snjooYeGtj8pG2+8cXf11Vf38gq50dvWW2/dLD8N5o95/vjjj3e77777Cvn6cvfdd/c2NMzOJoWNHHfccX3ddFjm1eMnezooywxjmD2XjGM7gXnHjm+55Zbl0oeNo2bUXNAP9iU/mFbu48w//uD000/v5XXSSSctlzcLxq2fL6GPSy65pJk/L2YTYHlZvRUwLYaV+OL7ySefPPPJPg4mvQX9hBNOaObPC47cxJv3Is+5kuuFF17YB6+cOcdrQi42oBQMW5AtDuQXdQqOygUs2GabbfrF6tJLL+37sOeee/bOIYJL+YILTkhf1VUGWDGGM844o7+fU37iiSe6I488ss/neB999NHlxnj//fd3V1xxxVj5K5tZy1N99Pvss8/26fW8Cpuv27vhhhv69tgkfUT9Bx54YF/H2Wef3d8/b3mGQ2YPgxbJUTYxbT55zTrAIh9y22efffprG8pp5+IgIsCyAF9wwQUr5B922GHdM888s4JtTAPZxRxuLaiuydSpIDuzsVWWLspyNaPsuWQc2wnI/MYbb+xlVAZYo8ZRMs5cEAw9/PDD3Uc/+tG+35jmMGGcNj/+8Y/38jIGera+lnVMy7j1s8N77723l/HqGWD5jcBWsLQY1NVqY0w4ekKE72XeoYce2h1wwAH9p93waaed1jv3yLOzYcznnXdev6uQd+yxx/bGE3Xsu+++3dFHH91PDOnynQRx/I7zLQTlgsT4lNeeMq1gxiRkAOpj+BxteRKgL8cff3y34YYb9tfqaLUX/dljjz36XZa+SjcO0f0111zTf8aYfWpL/a6HlcU4420Rgav7Iu3UU09dIYiZBGPk6DiOSFOntO222265suCw5JVjJSOLPOepHxyjXSPbqft21lln9Q5kiy226K+NmUO8/vrr+2sLFh17rBP3RD2bbrrpyPxIW1nMWp445JBD+s/WxsV3aaVT5DBD7q36ySvqn6c82bx27rjjjr6PgxbJUTYxbT4ZlQEW2zT/BCaLWRjJlXzoqUxXp3GygZjj5bznG+E7n+J7+FkBdanXkmjPGJ3ClHUaq2Daoo+yjvBv9Mt3lmPVNh/ON2m7Dgp33XXXvm/q0LY+Rt66667bB3p8XqSFHZZpLUbZczDIdujOWOq5RNZ0TEZlgDVsHJF/+OGH93IcZy7os+vSp03DOG3SE58fMi7nOuhyv/3262WkrliPjfncc8/trrzyyqHry6j6A3bihIucazkOixdmwWwCrGnevaqZ4l0sghQg3X777T2+U1rkM2BpjCC+C2wYHYX6LhK2U7HYUly9gwwjco90dVCu9kwsEbVJoyxD4VgsFJya++pFA6L+iPwZDIdTnmYxvthhmljqUG+MQZ8YYfQHdv8WqZigrp0WuNe19NowXTNEZeqy8keNdxKMd5pds76QUylLafRlHGVZGGO5mEVa6LIsW+p4nLTWgs6h0k+cyEyav9TMU57S2UxZjzLKxskGGZBF2ETrnkgrA/VglvLkRzwetSBqjxxa5UbZxLT5xh7+x/jMSfOz9h/jEjJWx84779ws09I5ucJ3/eMDlLn55pt7HwGnIVE+CB17vKWMwDDynBhJu+iii5ZrTxDjFI9/scCSvxOe8BP6ET7o2muvbc49RNv628oPLPLqsli38lu0bDMYZDts1nX5qI/M6OKUU05ZTsYlg8ahHvWNOxf0y/qmLYH9OBvjSRg2/8hJX8mtTFfeI1rrCFuid/KAvHHXl0H1Y//99+/t7KijjlpBjmIDtnTrrbc244VZMJsAq/w7V9OirlYbIyiP2yPNd2lx/FsbgElFwaHAeuL4DAfnGuEAGb505WN3xwnYuQiIXEeU73GKa7tDxsPAoz4TRH3lBLeDjX7GPSaG+i1A5RiOOeaY3oA43bo/MNEd5YZTFqBZGO1+asMU9OhLBFQRnEXwN2q84+KURD0CwFb+OOhLvRC00gJjDL0NS0Op40gjf3IOh0b+9FCXE5hbCPWDQ6v7Mip/ZTFPeUqn75YspLuHTbLzsNOwtXJeCMbqemYtT7tYembj0QefrbKjbGLafGMxLoGJYEJZ8zfaXwzqVL93ZgQCdGNxjPyWzvlN+B5zI3yEUy8yas1lY1DW4m5cCL8ljb7jBCfa8z7N+eefv1BOverXjuvoS9nnFtF2HZjAKZR0iyr/f8455yy0Nw6D7HkS29EevxljKWVcMmwcNcPmgvvpXF3wnU1NMu4W48w/aWRBbmW68ZY24VBBQBWHC9Ktd+ov76sZVD+50rHXDGItCzm+613v6gO48jRXnkBPXqRNy2wCrFagNA2tNkbgiFcgEc4KIfg4/qXQ0lDtfkqh1xPHJ8MpJ4my7mH4o5wRKNmuTGTs2NsELPvAmCi6PD7nVNRrLJwrR+Q79M+jTPXB40xp+tLqjwVLmwxVUMW5RF7Ix7hDFvXLlDFe+eOMdxRxAqfeaSZ3qy+ttMAYQ2/D0lDqONJigtKVAJk8OQMBZuyuQd7e6+AUvNxbP3oYlb+ymKc8pZfzCnQfJxsWVI+bycNjSfnmTThu8rbpsMM0F2w6op5ZyjMWOg5Z/4w/5lar/CibmDafvJwqytcPvxTQ6sekGJtHM06GyBSxyWzpvJzj5kY535ULHxJpATswPvfwY3Rts8vXOYEXMLfaIxcvd/Nv7hUEhQ60LS3KDqJsu84jWxtPQR75krs263KDaNnzpLYjCDPu+A3RUsYlw8ZRM2wuqKd8nOfwwYlRvEayWMaZf4NspNZlS2aD5FIyqH5jJDu6bcmR/9FndvDhD394qvVoEMsY+hprrDEVa55yW7fW2Q/MBHW12hiFQEUELRCItC233LLfGctzzQgcSUf+b//2b/fKizTlBGmek7v26dGaFwPjHmXt/P70T/+0T5cf5aEN+P7e976375PygisKN6miPe8WaJ8jifvh/Sv3OJ0yYb1orK/a4aQ44NgRwvtSjvxb/YF+cGba9gjUYvaOd7yjL2e8xm082vRuQ3mvHeW44x1FjEuftd8qMy76EoFnmdYaP1r2IS3GVpYtdVym6/8nPvGJvv8mM73YBZZlSgS/rXrGzV9K5ilP6eW8wkc+8pE+jTONNPauvfe973399Z/8yZ/072WRt082zPY32GCDhXtKppWn4E6fnGjQLzuwCPnU39Y9o2ximvyYn/pgIdAPfiDunQVkzB/QPT8xao7rQznfo490HGkBPdCHe7TjlyjoiM75or/4i7/oA7vSNgQexkoe/KJ7XeuXfG1LK9tpUbbdyg+23Xbbvi8Cg1Z+i5Y9T2I74QcFuMrCNciDrKLsuOOoGTUXhultsQxqc1BbtS7pWLnQdZQp7a1Fq37rIb2ybfKNtdd666DB2vt7v/d7/eGHNEG8fCfmZd3T8oJ5B6s+SkZ9fE2QZQQbj99EsK4pQvnYmfgk9DKidr9IWEQcjqLcyWgDvquv3HHXUbTdg3y7gLg/UMbOSoAYu0uGJMCy263Lo9UfbXIiEZ1rM3YaZeRvV2fxqh/3uY4d9ajxDoNT8azbZLHba5WZBLoli/ql7FLeJWxA+VLWjodjbGXZUsdleolApHxXzlG5k8Vylxj2pOyo/EhbWcxTnvW8Aluq3/mKR8etXXV56uF6HvL0HmY4dAgInCj5HOdkrLaJafPJi4wFnoINJ03xeH4xeITFn5Q6htMlPsF7OaPmuLlRzvfSh0RaUPs7fos98WsCKD6ptg11lz5If+T7jPyobxh124hHg/XJjnL1yf0wWvY8ie04tRJIl+XVh9qmW+OoGTUX+F6BhnKRb97Jj7VlUiaZf4NspNZlresoU9pbi1b9+lfKVx3mD9vWpn57By6e6Ai42B1Z2zRGPdPygvktwjBEhssZg2ClyVOGkF1bMExuR5scixfh5EeQttdee/XXEdCIspWPX2mOOkc5I+9YqN+CQYGcpBOkMCqLRTiauD8QSdePRJRjBKL1+I0Hn+rwnlerP8aofIxJX4zRxKoN04KqvzERRfoie+muR413EPG4h9wmOYofhonBealX/fG4hf7JCRaS6Gv8WQGylxePKiO4LlEmdFznaZcc6CXals6GyNJOSf3sj1wsJgKOUfl1O0vNPOUZjre0G05Y+fg1b206uSHX0kaks1l9c2IWeUshT3rWhk/XtQyCQTYxbb52yFietsmazBb7HpZ6vZNCr/GSe/jJkDtZO3lxki3fe6T8R8xxfSjnuz6SUb14og4O4j1Zf34gXngvbcMY1S1I1y+BgUfD5Z87kB/1DaNuG+pnz9LDpx5xxBH9eKM/rcChpmXPNfpb2g7Zt36LMDCuUq5BaxxgA/FbhKPmgjRrhDR55psnI2ypDobGZZL5N8hGlC/HVcssyiCuWwyzwaCWI1tn8wJP8ogAy+N487G+f7HMJsBaRf4Olp2B420v8MH38q8gUxQhm1ACHTuM8gVHARSHVv69DMGFctIEPOpUB4UxhGEBBwfhe/THfcpTJAVbMGJi1zBYO/Z4wTwIp6M+jgcWNWNo9cfE1l6U98mBSK8Nk5EJJo03cC1d/qjxDsJ92ibDmmGTYhScjP7oZ8g3+sZxGFu5M3UcLICke+X1mzwjP6D70HGZHuNQh8CAjiKP/C1KbCTqd1we/RmVvyowL3kOWpD8Zo/0aM/pTXl6pbx8MmOzZeC1FPKkb+37dN2SwTCbmDbfWOgj2jd+OmkFaeOijvAfMQctNPF+F7kaX+Qb76wCLHVb6Pm1GGdtG/Rv4de2PliwbfIGPYUYxKDARGAlyFQ3uyH7cg2I/gwLPAbZcwmdKRO6a9lOiXGVcg0GjUM90c9x5oLv0uSBvS329AqTzD9p+lrbSK3LWmZRpiWXkkH1l7TkKJhma/rOB6kjDhdmxWwCLKxCf8mdMFGnh0IZh4nWclKCCY/UIqiAcnYeZdoktPpDkZxHuWhMwqR9Ul4AOY5jbslgFOQaDruEUbd0MUvsNsdtg+6NbZa7lJJR9c+7/Vmw1PKcpL2a1UGeqyLmdvmIpEY6uZJvK3+eaHOQf54Vg8bnqcKsTzGWinHmgnk2S72O0+aqDv8z7MRyGmYXYGGad7Gm+PtX41JHzEmSJEmCTTbZpP81/fodtSRZLLMNsP7PHywuyHKPe1t1zhDveLTeEUmSJEmSJJklsw2wgkkeF67kf/CcJEmSJEkya+YTYMHL6n4j0OlU+ZfefZcmbyX+Y+ckSZIkSZJ5Mb8AK0mSJEmS5EVKBlhJkiRJkiQzJgOsJEmSJEmSGZMBVpIkSZIkyYzJACtJkiRJkmTGZICVJEmSJEkyY+YWYL1rg3d2p+95UHf3WZd0T99xf/fco0/0+C5NnjKte5MkSZIkSVZnZh5gvfWtb+3O/MjB3VM33dX833QlyijrnlZdSZIkSZIkqyMzDbD8A9Ebjzt7IYByYvXksRd1j217ZPfIRvv3+C5NXpRzzyT/WDhJkiRJkmRVZmYBllOom4//+ELQ9OTRF3YPvXXH7sG1t2siT5ko7948yUqSJPkB/sP/5Zdf3u22227N/CRZlTn33HO7E088sZn3YmFmAdaZex2yECw9/pFTmkFVC2XjPnW06l4qNtpoo2777bdfKadpZ555Znfbbbd16623XjN/Huywww7dY489tiT/ANt/qH/kkUd6PT/33HP9WLfaaqtm2XHZaaedugceeGChznvuuafbcccdm2Vx0EEH9eON8jfddFO32WabLeSvs8463d57791dd9113V133dVtvvnmy93PWTz55JP9/U8//XQvN/fIu+SSS/r0Gu2UTsaYr7766u7xxx/v7rvvvhXaWJnMWp7YZZddussuu6x78MEHV6jL/aVNXHXVVd3666/f540jz9qmyNMYyjam4eKLL+6eeuqp7uCDD27mY5hNTJtPXg899NDQ9idl44037u2PvEJu9Lb11ls3y08D26YTtr777ruvkK8vd999d29Dw+xsUtjQcccd19dNh2VePX6yL+fnKIbZMz3RoXqDccbGZtnxLbfcspA2aT/HmbvD+r5YhtVpPOZxmTYINs/2n3322X4M5HjOOecsN1emRV2D/Lu8k046aWEukmHpjxbLTAKsdd/+joV3rpxKtQKpYcRJljrU1WpjKTj55JNnPtnHwWSi8BNOOKGZPy8YFacwbaAzCpPw0Ucf7S688MI+eOXM77///u6KK65olh8HwfCdd97ZLw7kp07O3ORpTcptttmmX6wuvfTSvg977rln79RM6sjnoExsNlAHPxYI6WeccUZ/P2f3xBNPdEceeeRCmRr6NE51uyZn9dL1gQce2G277bYzdSDTMGt5qk8QzWFKr+cVWZB33E8eypx99tkLZWpKeYY+SpvS31ltUgR/giv2MCjAGWUT0+aT16wDLHPOXNxnn336axvKWcqtJAIsvv2CCy5YIf+www7rnnnmmV4Gs/K5ZBdzmP7qBd41mToVZNc2tsrSRVmuZpQ9Q8D/8MMPdx/96Ef7PIzasJP5jTfe2MuoDLAm6eeouTtO3ydlnDonCbCOPvro3vYPP/zwvs/mhDr333//ZvlJGeXfzTHtn3LKKX37e+21Vz9PyL2sZ1JmEmD5jcA+6nv0iaGPBQfhnngnS12tNsaFo6dU+F7mHXrood0BBxzQf4pOTzvttN4gI8+OwaQ877zz+h2BvGOPPbY32Khj33337Y3BxJAu30mQhcFxvoWCgqK8yaW89pRpBTOUe++99/b1MVKOtjwJ0Jfjjz++23DDDftrdbTai/7sscce/a5CX6Ubh+j8mmuu6T9jzD61Ve76B5XFOONtwZkbv0cekUY/jHzTTTddruy4GKOJzalF2qmnntqnbbfddsuVBccrrxwrGQl2OAuTzaJqxxJ9KyfgWWed1S/uW2yxRX9tzBzI9ddfv1CmRD233377cgtL1DvvgHYxzFqeOOSQQ/rP1saldT/5xP2RFtTyjDrZYpTR31pvi4HN68cdd9zRtzEowBllE9Pmk1cZYJGB+ScwGbZoDyICHnoq09VpnGwg5ng57/lG+M6n+B5+VkA9aLGO9ozRaVJZp7HecMMNfUCCso7wb3wG31mOVdt8ON+k7Too3HXXXfu+qUPb+hh56667bm8/fF6kadfYy7QWo+wZ0gfZH90ZSz2XyJqOyYjupY3TT+OMYGTU3B2n75MyTp3GYwNljbBWDFr/QNcCNuNxbU6QSWzYSru78sor+8eP6mJT1vGWrZTQyTD/fsQRR/TpxhNp+i9ojWttDVobBzGTAOvecy/vgyMvr7cCqHFwrzrU1WpjHChDgMQRw3fCj3wCk0a48V1gQ9AU5rsdFUVTBoOpd5ClcqSrg3Fpj1MW0Zs0yjIAjoWhc2ruqxcV2FXGaY4Fg8MpT7PC+DgTE0sd6o0x6BPDjP5AtG4RC0fjmrG417X0mLQmiHZcO+pVpi4rf9R4x4WR6zsHGxNqUvSFnEpZSqOvlvMwxnIxi7TQZVm2NQGHpbWCRIsg+cWO033KOvY+/fTTe53q72LHP2vmKU/ptQMellYGTUEtzxbmUMyTVv648CMesXDY+kMOrXKjbGLafLIJ/2POmJPmZ+0/xoWtmXPq2HnnnZtlWjo3V+G7/vEBytx88829TuCkJsoHYfMe0ylDh5FHj9Iuuuii5dqzaDtJ4F8spOTvhCd0Gj5P+rXXXjtwgxZt628rP7Boq0vQ1spv0bJdsBtriFMQwXO5+WTT7ikfWZIZXShfyrhF3U/1uFbvJHN3UN+nYVCdxkOXxshWlLFmtAITZevAX1roL+yOfGNtAh8U6721OwKyYcQcK+ddTaybsaEbto7W95bMJMDyt60ER35DsBU8jYN71aGuVhujMGEp0NFipMUxYzhlCisXdcbqmWsECLWh+AwH5xqlcqQrz/jlcQJ2vRZP13FyE4+I7A4Zm8kX9Zkg6isnuB1s9DPuMQnVbwEpx3DMMcf0yja56v7AIuGoMyafAI1R2v0Yn/LGLc8CVRpNGFUEf6PGOwpBK+MkUxNlmkneciCttMAYQ2/D0tCagORPzrH4x2LVup9cjJNcQk/6RA+cBCcTDkFbUWZlMk95Si/nFcKWSrvnzOpyaMmzxu7dvTYVrfxxsUOmZzYeffTZKjvKJqbNJwfyF5gIJpQ1f6P9xaBO9cd7OnQjeIv8ls75TfgecyN8hNOTQXI3BmUtesaF0J80fi1OcKI9m4/zzz9/oZx61a8d19GXss8tom39rfOcUkg3B/n/Sd/1adkz1Emu2g0Z01urbmnsOcZSyjgYt58tnbXSMKjv0zCozlpXtS7rsrWuyjSf5Skov8GXRgCEOMQYFHQH6lKOjdR5TggFg3y19uNJ0rB1tLy/ZiYBlsAI/gxDK3gaB/dGPa02RkEwBBDOChROoXGsWiuRIspJWBuKT0ZaOthSOaOcERiXXZmTNEeknGTZBydVdVTPENVrLJwrR+Q79M+jTPXB40xp+tLqD4PQpsCMMZRHoCEf4w5Z1C+FxnjljzPeYeiLZ9oWSy++lkfgk9LqSystMMZ6UrXSUOo40iLYpCsBMnk6vRNgCgDK+01+Mi+DB7tZDoENRJoNQDlpVybzlKf0cl7BvIhgmzxtKsiHrdtUlPe35FkSp7r0NslCWRMLncca6jH+mFut8qNsYtp88nIyIV8/vKDb6sekGNt+++3XnwyROWKT2dJ5OcfJuJzvyoUPibSAHRife8oTSL7OYmlxbLVHLl5S59/cK7gIHWhbWpQdRNl2nUe2FkxBHvmSuzbrcoNo2TO0Wb4GYX47wYlXNUoE8MYdvyFayjgYt58tGbbSMKjv0zCozlpX+qRc6LKkpdcyzWcpH23VdqcMndf+p2ZYOboyFwW17NWhgPRh6+gwXjABFkHXjyzi9CeUUCuRoyGwSKsNxScjLQ2iVE7LiLURhuDkSp+U9wiyDrBMIO3XL9KF4xV8OT2KnV8YFYdrcQq8zGiiDppU+hHH9By4nZPFJOoz7nBInt2X9zK2ccc7CZxr1NvKH4W+zOuR1qAJSC92SWTO+dNLvC8T0BP50iv9RrqJK5jSx0iLdyfKtJXFPOUpvZxXgYXWaQV5+mSjbLt0XoPkGcRcUUfslBdLnHjbtMTiLvjw2VokMcompsmP+akPggz9II+4dxbQAfnSPT/R0nk5x/WhnO/RRzqOtIAd0I17yqCqDLZsskrbsLk0VvLgF9076wCrxKZVX5wmtvJbDLLnmkGyCZt1UkLncA3yKDfbwbB+TjJ3x+37JAyqs9aVPikXuixR1jyo0+J+n6PsThkyrP1PzTjlzDNzUZsx5wato/W9JTN7ROg4dNxHhA+ste0KadM+ImwdP9bH17XCIwCL57a1ofhkpKVBlMppGbE2whDUV+7I60nPactvnWAoY1GxiMXu0guLlCvoqcuj1R9tlr+tps04PSqN1OLVetznOnbUo8Y7CLsAp27l7i5kzXGUZcclgpP6xc7WCQjYgPKlrE3oGFtZdpwJqN+cWvmuHOLdkrC5IHRXOkinWmTgsyy7MpinPOt51aJcgMv0QfKE4/tbb711JsEVbILUFfjNLI7U5zinrYNsYrH55GXsXgOwCAu0ysf/k+LxJ39S6hgCHj6BHY6a4+ZGOd9LHxJpQe3v+C32xK9ZvPik2jbUXfog/ZHvM/KjvmHUbSMeuZW6jHL1yf0wWvbMFr3IHSceMDeUq99RtRm2KS5tTTnwk36DbZJ+TjJ3x5mLkzKozlpXtS5L6JxdxDpl48ZWY61Tzyi7U2aU30arHFlLLzd3Uc7TG2UHraNRvsVMAqx7Pn5ZfxT6+NEXrBA41dy/5jbdXWu8d4Uga9qX3MMAGS5nDYZbCpKCXDM6grJDIqT4VVBOnNIYuOtYFL2IqXz8SnPUOcoZWUzVTxl+u4GTjPdu5FtMwtHE/UE8Yy4niXIM0UkIZynNpzoG7T6NUfkYk74Yo0lfG6lJqb/hJByF2j3Gqdao8Q6CfLXjhMAY6MY9g04lxsFEiF9NtrjGrjB+NRkcTvSVfPSd7OXFY6UIrktaEzDQLjnQS7Rd5ru3fFcgCN2F/bnP+xmD2llq5inPYU5dW2xS297L026ZP0ie7ov5Xd8zK+hZv326rmUQjLKJxeZrh4zlaZssyHix72Gp16MPMouX3MNPapsc6YIv91tS8r1Hyn/EHNeHcr7rY+lDSsInu8e1YFlZvyovqJNW2oYxqluQrl+CFqd55Z/KkB/1DaNuG+pnz9LDp/rtMeON/vB99WawpmXP6o4TD33n7z1qpi+BM9l73Ff/FmHgvpDrOP1kA/yzsqPmbrSBYXNxsQyqs9YVHSoXuiwhG+OLINFaqWyszePYnTLGPcqftspZD7Uf71SRuwAv3j8eto5GHS1mEmCduvtf9p175uHHRv6ZhlaANas/02Bn4C1/p2nwPZ5xg4IItu/r/wQ6dqfli4MCKA5NP8IwBBfKSRPwqDOUw1CGBRwchO/RH/cpb6E1CSwoMWFqTFILSyg4CKejPo4HFjVjaPXHhNNelPfJgUivjZRTEEwab+A6fvV11HgHoW8cNvmRuz6M+iOW48DJ6I9+hnyjTk7N2Modn3fhBJDRB/0mz8gPBk1U4ydDdfj7S/Wir00OtX7kG5T2wJ6cVpiorbIrg3nJc5ADdi2dXbDJOlAaJs/QBTnWlE53GrShfz5dt2QwyiamyScf+oj2Y+FsBWnjoo7wHyEvwVW832WuGl/kG++sAix1C0LKgLm2DfOBzrWtDzZhNnlxgqntqG8YdduBhVOQqW52S/blGhD9oevyvpJh9syvqRt0Ggtwy3ZKjKuU66h+qqfs57C5WzKo79MwqM5aV+xYubDnkrA7/TdWn+V4x7E7ZYy79ts1rXLl2qd9MjTPwp8NW0ejjhYzCbD+3/99W/fQVTf1nRv1h0ZbAdas/9AowbWEHAqnNAbcEg5BOwqMoALK2XmUaZPQ6o+dEudRLyrjMmmflBdAjjIItGQwCnINh11SGjK5q9eOq75/Guw2W/puMa8+TIK+Dtshr2xWN3kmk2Nu8weD9CadXmOBW0qG+edZMWh8nirU7wFOirkzK9lNqodJ5u6qyLRr7bRoV/uDbG+SdRTLPve5z3Wvec1rup/92Z/t1lprrYWMX/qlX+pe+cpXdmuuuWZ//au/+qvdj/3Yj3UveclLuh/5kR/pfvEXf3Gh/Jve9KbuyO137wMsi+qwf5VTB1jKus+p0qHb/MUKdeM3f/M3u1e84hV929Cv3/qt3xo7P6gj6iRJkiTBJpts0r94Xr7LlCTT0J9gveENb+he/vKX94GKREGVIOVXfuVX+utf//Vf7378x3+8e/3rX99fK/+yl72s+7Vf+7X+WoD1qle9qrv+6DMXTi6cSrUeF0aA9eBbdujLCK4cpV531BndW97ylu43fuM3+r689rWvXejLT//0T3c///M/339/4xvf2PdNe4KwUfnqCLzz0npHJEmSJEmSZJb0AVYEKRFQrbHGGt1P/MRPLBdwCaLiJteCmAiC5AmKHGPeeNzZC0GW96q8vO43BP0Zhp73H949dNjHu2cfebwv4/2Lqw4/ZbkjQadl2ncKFXVLi3z9EuwJoEblR1qSJEmSJMlSsfAOlkeC8ZhQ4FQ/MnSy9HM/93N9MAOP8uoA63Wve1331re+tTvzIwcv/PPnmngc6CWxJ2+8szvyA7v1p07RDgR46vPp+pd/+Ze7H/7hH+5+6qd+qv9eP/4blZ8kSZIkSbKULARYcWrl0+lUPP6DwMkjQadEghcBkROvVoAV97xrg3f2vxF491mX/ODvZD36P0GVE63b7u1uPOHj/W8erv9Hf9zf5xFk3Ic6wII2tK9vgimBVHnPqPwkSZIkSZKlYiHAclrl1OoXfuEX+pOg8lTp1a9+dU9cD3pEWAZYg1BGWfdo82d+5mf6l9rLMoK7eEQI92gz8j3KlK+OUfmRliRJkiRJslQsBFgQmPgtPI8Cy8eDfsvwJ3/yJ/t3m6Qr5xGhx4ryFxtguRZMOR2LF+i1oS1txrUX7COY0748J2iCqlH50pIkSZIkSZaS5QIsp1aCnwh2AqdEApb4Mwh+Q891BGLTBFgQsL30pS/t6/6hH/qhPkAqgyP9EYRF+wKw8vHhqPwkSZIkSZKlZLkAaxSCnlGnQk6SItApEUCNCnoEXeXJWc2o9sfpX5IkSZIkybyZKMAaBwGOQKnFsOApSZIkSZLkhcLMA6wkSZIkSZIXOxlgJUmSJEmSzJhln//855sZSZIkSZIkyeLoA6x3vOMdzcwkSZIkSZJkcpZ94Qtf6I444ohmZpIkSZIkSTI5y774xS923/nOd7rNNtusWWBl47cP/YV5f1C0lY9xyiRJkiRJkiwVy770pS91fq6++uruQx/60Cr3uFDw9IpXvGLo39Aap0ySJEmSJMlSsewrX/lK5xRrt912644++ujumWee6Z566qnuySefXBSPP/54d/3113ePPPJIM39S7r777m6DDTborrnmmmY+ximTJEmSJEmyNDzZ/X8X9mpsyAuDGAAAAABJRU5ErkJggg==;" vertex="1" parent="1">
          <mxGeometry x="180" y="874.55" width="520.96" height="135.45" as="geometry" />
        </mxCell>
      </root>
    </mxGraphModel>
  </diagram>
</mxfile>
